<?xml version="1.0" standalone="no"?>
<!DOCTYPE svg PUBLIC "-//W3C//DTD SVG 20010904//EN"
 "http://www.w3.org/TR/2001/REC-SVG-20010904/DTD/svg10.dtd">
<svg version="1.0" xmlns="http://www.w3.org/2000/svg"
 width="1063.000000pt" height="2067.000000pt" viewBox="0 0 1063.000000 2067.000000"
 preserveAspectRatio="xMidYMid meet">

<g transform="translate(0.000000,2067.000000) scale(0.100000,-0.100000)"
fill="#000000" stroke="none">
<path d="M2995 19150 c-127 -12 -349 -57 -467 -96 -140 -46 -373 -199 -485
-317 -175 -183 -309 -456 -343 -697 -7 -47 -17 -96 -23 -110 -16 -34 -23
-15173 -7 -15270 46 -286 121 -482 254 -669 186 -260 468 -442 846 -545 l115
-31 2745 0 c2636 0 2748 1 2830 19 335 73 594 226 822 487 199 227 323 524
349 839 7 85 9 2547 7 7620 l-3 7495 -22 90 c-56 227 -126 392 -236 554 -73
108 -262 294 -372 367 -49 32 -92 62 -95 65 -12 14 -101 61 -170 89 -93 39
-207 73 -325 96 -85 17 -234 18 -2715 20 -1444 0 -2661 -2 -2705 -6z m-695
-274 c0 -2 -28 -23 -62 -46 -136 -94 -289 -279 -372 -449 -33 -66 -73 -185
-107 -316 -9 -34 -15 -168 -19 -420 l-7 -370 2 410 c3 432 4 446 35 538 11 31
20 61 20 67 0 10 91 202 100 210 3 3 23 30 44 62 32 48 136 164 136 152 0 -2
10 7 23 19 13 12 22 25 20 29 -2 4 7 10 19 14 13 4 33 14 44 23 12 9 32 23 44
31 12 8 32 23 44 32 20 16 36 23 36 14z m7048 -6926 c0 -3220 -4 -5866 -8
-5880 -4 -14 -8 2635 -8 5885 0 3251 4 5897 8 5880 4 -16 8 -2665 8 -5885z
m-7611 5243 c-2 -16 -4 -3 -4 27 0 30 2 43 4 28 2 -16 2 -40 0 -55z m1758
-358 c21 -20 25 -34 25 -84 0 -72 -11 -106 -42 -122 -15 -8 -79 -14 -183 -15
-88 -2 -168 -3 -177 -4 -14 0 -18 -12 -20 -62 -3 -57 -5 -63 -25 -66 -22 -3
-23 -1 -23 76 l0 80 36 21 c32 19 51 21 198 21 113 0 166 4 174 12 17 17 15
59 -4 86 -15 21 -21 22 -202 23 -103 0 -195 4 -205 7 -16 7 -16 9 -2 30 16 22
20 22 221 22 204 0 205 0 229 -25z m542 1 l28 -24 3 -166 3 -166 -25 0 c-25 0
-26 3 -26 53 0 28 -4 57 -8 64 -8 13 -293 26 -333 16 -16 -5 -19 -15 -19 -69
0 -62 -1 -64 -26 -64 -25 0 -25 1 -23 74 2 83 3 84 41 108 22 14 57 18 195 20
l168 3 -1 38 c-2 71 -16 77 -189 77 l-152 0 -11 -25 c-18 -40 -42 -32 -42 15
0 62 22 69 222 70 162 0 168 -1 195 -24z m560 18 c39 -11 57 -52 61 -146 6
-116 -3 -168 -34 -201 l-25 -27 -219 0 -220 0 0 29 c0 17 5 33 11 37 7 4 10
53 8 148 -2 77 0 147 4 154 6 9 57 12 200 12 106 0 202 -3 214 -6z m605 -22
c20 -19 23 -34 26 -127 5 -127 -2 -170 -33 -201 -24 -24 -27 -24 -212 -24
-253 0 -236 -14 -231 187 l3 156 35 19 c31 17 54 18 212 16 169 -3 179 -4 200
-26z m2092 -92 c27 -10 55 -55 42 -67 -4 -4 -18 7 -32 25 -42 53 -114 42 -114
-19 0 -33 13 -44 70 -59 84 -22 111 -71 69 -124 -18 -22 -28 -26 -75 -26 -61
0 -94 22 -94 65 0 34 13 32 27 -4 8 -23 19 -31 48 -37 21 -4 47 -2 61 5 21 9
25 17 22 43 -3 30 -8 34 -57 49 -98 29 -128 83 -76 134 26 27 65 32 109 15z
m-434 -10 c0 -6 -30 -10 -70 -10 l-70 0 0 -50 0 -50 66 0 c48 0 65 -3 62 -12
-3 -8 -28 -14 -66 -16 l-61 -3 -3 -56 c-2 -34 -8 -58 -15 -61 -10 -3 -13 28
-13 132 l0 136 85 0 c50 0 85 -4 85 -10z m219 -18 c48 -48 49 -150 2 -211 -16
-20 -29 -25 -94 -29 l-76 -5 -3 137 -3 136 73 0 c67 0 76 -2 101 -28z m541
-107 c0 -83 -4 -135 -10 -135 -6 0 -10 41 -10 103 l0 103 -37 -3 -38 -3 32 15
c17 8 34 24 38 35 16 51 25 10 25 -115z m234 105 c36 -35 33 -183 -5 -221 -21
-21 -69 -25 -99 -9 -39 21 -53 149 -22 210 25 51 83 61 126 20z m-374 -140 c0
-5 -20 -10 -45 -10 -25 0 -45 5 -45 10 0 6 20 10 45 10 25 0 45 -4 45 -10z
m-5743 -267 c-1 -49 -3 -9 -3 87 0 96 2 136 3 88 2 -49 2 -127 0 -175z m0
-200 c-2 -21 -4 -4 -4 37 0 41 2 58 4 38 2 -21 2 -55 0 -75z m0 -135 c-3 -7
-5 -2 -5 12 0 14 2 19 5 13 2 -7 2 -19 0 -25z m1761 -1925 l2 -333 -50 0 -50
0 0 259 c0 145 -4 271 -10 285 -8 22 -16 26 -50 26 -45 0 -52 18 -24 58 23 33
50 41 119 39 l60 -2 3 -332z m2122 315 c78 -42 116 -122 103 -218 -11 -87 -56
-140 -213 -254 l-85 -61 143 -3 142 -3 0 -54 0 -55 -215 0 -215 0 0 55 c0 37
4 55 13 55 6 0 32 16 57 36 25 20 70 55 100 77 30 22 68 53 84 69 17 15 33 28
38 28 4 0 19 17 33 37 35 52 35 123 0 169 -29 37 -87 59 -132 48 -40 -9 -80
-51 -88 -90 -6 -32 -8 -34 -45 -34 -37 0 -40 2 -39 28 0 15 8 49 17 77 15 43
24 54 72 82 47 29 63 33 121 33 50 0 78 -6 109 -22z m2156 -25 c7 -46 6 -47
-42 -91 -27 -24 -64 -56 -82 -70 -18 -13 -30 -27 -28 -30 3 -2 27 -8 53 -13
61 -12 116 -48 136 -92 26 -54 23 -157 -7 -215 -29 -57 -58 -84 -114 -105 -67
-26 -148 -22 -212 11 -61 31 -88 62 -100 117 -13 56 1 82 45 87 28 3 38 0 42
-11 23 -74 52 -101 117 -108 30 -4 56 1 89 16 40 18 48 27 57 63 10 33 9 49
-4 82 -23 58 -55 78 -138 84 -64 4 -70 7 -84 34 -9 17 -14 31 -12 32 2 1 14 9
28 18 44 27 130 109 130 124 0 11 -22 14 -110 14 l-110 0 0 40 c0 27 6 42 18
49 9 6 84 11 169 11 l152 0 7 -47z m-4204 -1975 l3 -213 33 -3 c31 -3 32 -4
32 -52 0 -48 -1 -49 -32 -52 -33 -3 -33 -3 -36 -65 l-3 -63 -44 0 -44 0 -6 48
c-3 26 -7 54 -8 62 -2 12 -30 16 -162 20 l-160 5 -3 48 c-2 26 1 47 7 47 5 0
45 45 88 101 43 55 86 110 95 121 10 11 20 30 24 42 17 54 141 164 186 165
l28 1 2 -212z m2133 157 l0 -50 -137 -3 -137 -3 -5 -32 c-15 -89 -21 -81 79
-89 50 -3 104 -11 120 -18 98 -38 141 -160 99 -283 -19 -56 -80 -112 -138
-128 -57 -15 -167 -6 -207 17 -69 41 -117 137 -87 176 7 9 28 18 46 20 31 3
35 0 47 -37 16 -45 34 -61 88 -77 32 -10 47 -9 93 7 64 22 74 36 74 103 0 95
-56 132 -198 132 -81 0 -90 2 -112 25 l-23 25 17 70 c9 38 14 80 10 93 -3 13
1 40 9 60 19 44 24 45 217 43 l145 -1 0 -50z m1965 44 c0 -6 -25 -49 -55 -94
-30 -46 -55 -86 -55 -88 0 -2 30 -7 68 -11 83 -9 138 -39 178 -98 26 -39 29
-50 29 -130 0 -80 -2 -89 -30 -129 -17 -24 -50 -57 -74 -74 -37 -26 -53 -30
-121 -34 -65 -2 -87 1 -123 18 -91 44 -134 126 -123 233 4 35 8 74 9 88 4 33
42 105 65 122 10 7 41 47 70 88 53 77 78 100 122 111 38 10 40 10 40 -2z
m-5928 -4319 c4 -2761 -2 -4772 -12 -4550 -15 323 -9 7263 6 7247 1 -1 4
-1215 6 -2697z m3883 2492 c80 -56 94 -170 30 -234 l-25 -25 36 -28 c40 -31
73 -94 74 -141 0 -17 -7 -51 -15 -75 -39 -111 -159 -167 -285 -135 -75 19
-112 47 -139 103 -25 51 -27 100 -5 151 9 20 17 46 20 57 2 10 17 30 34 43
l30 24 -25 30 c-27 32 -34 94 -15 142 6 18 6 26 -1 26 -20 0 27 49 61 63 19 8
46 20 60 26 41 18 120 5 165 -27z m2110 -6 c72 -55 105 -122 105 -214 0 -76
-28 -134 -177 -359 -33 -51 -37 -53 -79 -53 -52 0 -52 3 14 102 24 38 42 73
40 79 -2 7 -31 13 -66 15 -78 4 -153 41 -183 93 -29 48 -37 152 -16 203 9 22
11 38 6 40 -15 5 60 88 90 101 93 39 209 36 266 -7z m-4115 20 c0 -7 -16 -49
-36 -92 -38 -84 -47 -106 -116 -254 -24 -52 -64 -141 -89 -197 l-44 -103 -42
0 c-41 0 -41 1 -33 28 7 25 32 81 110 247 94 202 110 238 110 255 0 18 -10 20
-137 22 l-138 3 -3 33 c-4 38 10 59 41 65 12 2 102 5 200 6 144 1 177 -2 177
-13z m-1943 -1048 c-3 -8 -6 -5 -6 6 -1 11 2 17 5 13 3 -3 4 -12 1 -19z m0
-4061 c-1 -727 -2 -132 -2 1323 0 1455 1 2050 2 1322 2 -727 2 -1917 0 -2645z
m1783 3198 c0 -137 4 -140 88 -64 77 68 106 83 132 67 11 -7 20 -17 20 -23 0
-6 -36 -46 -80 -90 l-81 -80 118 -5 118 -5 3 -47 3 -48 -123 0 -123 0 85 -85
84 -85 -34 -35 -34 -35 -81 80 c-44 44 -84 80 -88 80 -4 0 -7 -52 -7 -115 l0
-115 -39 0 -39 0 -4 109 c-1 60 -7 113 -11 117 -4 4 -42 -27 -85 -69 -43 -42
-81 -77 -86 -77 -16 0 -46 32 -46 50 0 9 16 31 35 50 19 19 35 38 35 44 0 6
17 27 37 48 l37 38 -117 0 -117 0 0 39 c0 22 6 43 12 47 7 5 57 10 112 14
l100 5 -67 70 c-37 39 -67 75 -67 82 0 12 51 53 67 53 5 0 38 -29 73 -65 35
-36 70 -65 77 -65 10 0 13 23 13 88 0 127 4 134 68 141 9 1 12 -28 12 -114z
m2203 80 c131 -74 198 -209 177 -357 -11 -77 -44 -140 -102 -194 -74 -69 -125
-89 -233 -89 -78 0 -97 4 -146 28 -68 33 -105 67 -144 133 -28 46 -30 55 -30
159 0 88 4 117 18 143 10 19 20 44 23 55 5 30 82 101 130 122 66 29 96 34 179
31 65 -3 89 -9 128 -31z m1809 -47 l3 -53 124 0 125 0 10 50 c9 40 15 51 34
53 20 3 22 -1 22 -36 0 -67 5 -72 71 -72 l59 0 0 -40 0 -39 -62 -3 -63 -3 0
-115 0 -115 63 -3 62 -3 0 -39 0 -39 -62 -3 -63 -3 -3 -57 c-3 -54 -5 -58 -27
-58 -26 0 -27 3 -40 83 l-6 37 -124 0 -125 0 0 -61 c0 -60 0 -60 -27 -57 -21
2 -29 9 -31 28 -10 92 -7 89 -75 92 -57 3 -62 5 -65 27 -5 32 21 51 69 51 68
0 69 2 69 107 0 125 -5 133 -81 133 l-60 0 3 32 c3 32 5 33 68 43 l65 10 7 43
c9 53 14 62 38 62 16 0 19 -9 22 -52z m-47 -2176 c45 -6 50 -10 53 -34 3 -22
-2 -30 -23 -38 -29 -11 -3842 -14 -3883 -4 -31 9 -24 33 17 61 l34 23 1876 -1
c1032 0 1899 -4 1926 -7z m-5748 -2444 c-3 -8 -6 -5 -6 6 -1 11 2 17 5 13 3
-3 4 -12 1 -19z"/>
<path d="M4230 16670 l0 -130 168 0 c209 0 212 1 212 107 0 80 -14 129 -40
143 -10 6 -91 10 -179 10 l-161 0 0 -130z"/>
<path d="M4812 16788 c-8 -8 -12 -48 -12 -113 0 -139 -5 -135 186 -135 193 0
194 0 194 113 0 64 -4 89 -20 115 l-20 32 -158 0 c-110 0 -162 -4 -170 -12z"/>
<path d="M6930 16610 l0 -110 54 0 c71 0 96 20 103 82 11 98 -18 138 -102 138
l-55 0 0 -110z"/>
<path d="M7749 16683 c-15 -38 -15 -133 0 -161 17 -32 58 -39 83 -14 16 16 20
33 20 83 -1 93 -13 119 -57 119 -29 0 -37 -5 -46 -27z"/>
<path d="M3362 12284 c-56 -70 -102 -132 -102 -136 0 -4 47 -8 104 -8 85 0
105 3 110 16 8 22 6 215 -3 238 -6 16 -25 -3 -109 -110z"/>
<path d="M7525 12262 c-39 -24 -54 -43 -65 -83 -20 -68 24 -146 97 -170 29 -9
46 -8 94 6 69 21 92 49 92 110 0 114 -126 193 -218 137z"/>
<path d="M5461 10667 c-42 -21 -66 -63 -55 -93 21 -61 102 -86 169 -53 58 28
40 115 -30 145 -42 17 -53 17 -84 1z"/>
<path d="M5433 10400 c-26 -10 -63 -66 -63 -93 0 -31 30 -77 63 -97 42 -26
102 -25 157 3 44 21 45 24 47 72 3 53 -4 66 -51 103 -31 24 -109 30 -153 12z"/>
<path d="M7535 10646 c-40 -18 -61 -43 -75 -92 -18 -59 12 -124 69 -153 48
-25 81 -26 140 -3 81 31 101 114 48 193 -40 61 -117 84 -182 55z"/>
<path d="M5401 8823 c-45 -22 -93 -71 -114 -115 -21 -44 -22 -136 -3 -182 19
-46 73 -104 117 -127 51 -26 149 -25 207 1 23 10 42 16 42 13 0 -17 65 57 81
92 51 110 -10 264 -125 316 -53 24 -158 25 -205 2z"/>
<path d="M7474 8717 c-2 -7 -3 -60 -2 -118 l3 -104 125 0 125 0 3 97 c4 140 6
138 -134 138 -86 0 -116 -3 -120 -13z"/>
</g>
</svg>
