<?xml version="1.0" standalone="no"?>
<!DOCTYPE svg PUBLIC "-//W3C//DTD SVG 20010904//EN"
 "http://www.w3.org/TR/2001/REC-SVG-20010904/DTD/svg10.dtd">
<svg version="1.0" xmlns="http://www.w3.org/2000/svg"
 width="1035.000000pt" height="2081.000000pt" viewBox="0 0 1035.000000 2081.000000"
 preserveAspectRatio="xMidYMid meet">

<g transform="translate(0.000000,2081.000000) scale(0.100000,-0.100000)"
fill="#000000" stroke="none">
<path d="M2830 19424 c-58 -7 -128 -20 -156 -29 -28 -8 -63 -15 -77 -15 -38 0
-197 -54 -269 -91 -35 -18 -81 -41 -103 -52 -38 -19 -135 -87 -204 -144 -116
-96 -224 -240 -303 -403 -73 -150 -113 -302 -148 -560 -6 -38 -9 -3279 -10
-7696 l0 -7630 25 -130 c25 -129 43 -199 72 -284 25 -75 122 -259 164 -312 21
-27 39 -53 39 -57 0 -15 182 -190 233 -224 29 -20 62 -45 75 -57 30 -29 289
-154 382 -185 115 -38 250 -65 384 -75 162 -13 5160 -13 5322 0 213 16 369 58
554 148 118 57 151 77 204 124 17 16 34 28 38 28 16 0 156 129 222 206 135
153 227 315 290 504 76 229 70 93 73 1677 3 1170 6 1423 17 1423 18 0 31 233
31 545 -1 312 -13 525 -32 525 -20 0 -20 1785 0 1793 26 10 32 329 32 1702 0
1365 -5 1633 -31 1648 -21 12 -21 2357 0 2357 20 0 28 157 29 525 1 356 -9
535 -29 535 -12 0 -14 232 -14 1438 0 1241 -2 1450 -15 1532 -48 299 -184 575
-384 784 -242 251 -552 408 -889 451 -109 13 -436 15 -2770 14 -2171 -1 -2666
-4 -2752 -15z m-638 -271 c-12 -10 -38 -29 -58 -43 -69 -47 -176 -155 -243
-245 -158 -212 -232 -432 -251 -740 -7 -119 -8 -114 -4 55 5 237 5 238 42 348
45 132 118 275 170 330 6 7 12 17 12 22 0 4 27 35 60 68 33 34 60 59 60 57 0
-2 10 6 23 18 13 12 22 25 20 29 -2 3 9 10 25 16 15 5 56 32 92 59 36 27 67
48 69 46 2 -1 -5 -11 -17 -20z m-555 -1240 c-2 -16 -4 -3 -4 27 0 30 2 43 4
28 2 -16 2 -40 0 -55z m7710 5 c-3 -8 -6 -5 -6 6 -1 11 2 17 5 13 3 -3 4 -12
1 -19z m1 -5835 c-2 -3200 -5 -5451 -8 -5003 -5 853 -7 8791 -3 10078 2 408 5
742 8 742 3 0 4 -2618 3 -5817z m-7711 5750 c-3 -10 -5 -4 -5 12 0 17 2 24 5
18 2 -7 2 -21 0 -30z m0 -75 c-3 -7 -5 -2 -5 12 0 14 2 19 5 13 2 -7 2 -19 0
-25z m0 -100 c-3 -7 -5 -2 -5 12 0 14 2 19 5 13 2 -7 2 -19 0 -25z m0 -180
c-3 -7 -5 -2 -5 12 0 14 2 19 5 13 2 -7 2 -19 0 -25z m1715 -334 c109 -10 123
-23 123 -118 0 -69 -2 -78 -28 -103 l-27 -28 -185 -3 -185 -4 0 -69 c0 -67 -1
-69 -25 -69 -25 0 -25 1 -25 78 0 87 3 93 47 116 26 13 63 16 189 16 132 0
160 3 176 17 22 20 23 46 2 78 l-16 25 -188 0 c-197 0 -220 3 -220 27 0 38
155 54 362 37z m641 -19 c34 -22 37 -38 37 -217 0 -150 -1 -158 -20 -158 -20
0 -27 21 -32 100 l-3 35 -176 3 c-201 3 -189 9 -189 -90 0 -41 -3 -48 -20 -48
-18 0 -20 7 -20 85 l0 84 33 18 c26 15 65 19 202 23 l170 5 3 35 c2 25 -3 42
-18 58 -20 21 -28 22 -176 22 l-154 0 -12 -25 c-17 -37 -43 -28 -43 14 -1 24
6 37 25 50 42 30 50 31 212 27 122 -4 162 -8 181 -21z m593 0 c32 -20 44 -73
44 -186 0 -107 -16 -160 -52 -181 -28 -14 -287 -24 -384 -13 l-66 7 6 51 c13
102 15 213 5 256 -8 36 -7 47 7 62 24 26 42 28 238 23 136 -3 185 -8 202 -19z
m467 18 c82 -5 101 -10 122 -29 24 -23 25 -26 25 -169 0 -143 -1 -146 -25
-169 -29 -27 -84 -36 -226 -36 -127 0 -184 9 -208 32 -19 17 -21 31 -21 126 0
59 3 130 6 159 6 50 8 52 53 72 50 22 109 25 274 14z m2269 -133 c19 -23 24
-60 9 -60 -5 0 -12 11 -15 24 -14 55 -111 56 -131 2 -8 -24 -6 -30 15 -46 14
-11 42 -22 62 -25 81 -14 115 -80 66 -132 -30 -32 -118 -33 -147 -2 -25 27
-33 59 -15 59 8 0 14 -6 14 -14 0 -40 102 -62 134 -30 38 38 11 76 -70 100
-65 19 -89 48 -79 94 4 18 17 36 33 45 37 21 102 13 124 -15z m-472 10 c0 -6
-34 -10 -81 -10 l-80 0 3 -52 3 -53 70 -5 70 -4 -70 -6 -70 -5 -3 -67 c-2 -38
-7 -68 -12 -68 -6 0 -10 58 -10 140 l0 140 90 0 c53 0 90 -4 90 -10z m222 -15
c50 -46 52 -175 4 -223 -23 -24 -36 -27 -106 -30 l-80 -4 0 141 0 141 78 0
c69 0 80 -3 104 -25z m790 4 c67 -36 62 -238 -7 -255 -75 -19 -118 27 -118
126 0 32 6 72 13 90 19 45 68 62 112 39z m-227 -8 c-52 -5 -60 -9 -66 -31 -15
-54 -12 -58 34 -53 61 7 92 -20 92 -80 0 -63 -24 -87 -86 -87 -38 0 -51 5 -63
22 -18 26 -21 48 -6 48 6 0 10 -7 10 -15 0 -20 35 -37 73 -33 42 4 62 41 46
87 -13 37 -48 49 -93 33 -16 -7 -31 -10 -33 -8 -3 2 -1 31 3 65 l7 61 71 -2
71 -1 -60 -6z m-145 -151 c0 -5 -23 -10 -51 -10 -31 0 -48 4 -44 10 3 6 26 10
51 10 24 0 44 -4 44 -10z m-5853 -147 c-2 -21 -4 -4 -4 37 0 41 2 58 4 38 2
-21 2 -55 0 -75z m0 -135 c-2 -18 -4 -4 -4 32 0 36 2 50 4 33 2 -18 2 -48 0
-65z m0 -70 c-3 -8 -6 -5 -6 6 -1 11 2 17 5 13 3 -3 4 -12 1 -19z m0 -110 c-2
-13 -4 -5 -4 17 -1 22 1 32 4 23 2 -10 2 -28 0 -40z m0 -60 c-3 -7 -5 -2 -5
12 0 14 2 19 5 13 2 -7 2 -19 0 -25z m1813 -2043 l0 -335 -44 0 c-43 0 -43 0
-50 41 -4 23 -6 146 -5 275 0 128 -2 237 -6 243 -3 6 -27 11 -52 11 -44 0 -45
1 -38 27 14 57 41 71 133 72 l62 1 0 -335z m2172 306 c58 -37 88 -96 88 -174
0 -32 -6 -73 -14 -92 -21 -49 -87 -117 -188 -191 -48 -35 -88 -69 -88 -74 0
-6 56 -10 140 -10 l140 0 0 -50 0 -50 -220 0 -220 0 0 50 c0 28 4 50 9 50 8 0
47 29 130 97 19 15 46 35 60 44 60 36 138 118 151 158 26 79 -22 163 -99 176
-68 11 -124 -23 -141 -87 -10 -36 -13 -38 -50 -38 -46 0 -49 9 -27 93 14 53
28 69 84 102 30 19 54 23 119 24 72 1 85 -2 126 -28z m2162 13 c3 -9 6 -31 6
-49 0 -29 -10 -41 -80 -101 -81 -68 -87 -83 -32 -84 37 0 107 -39 133 -73 19
-25 24 -47 27 -106 5 -94 -8 -137 -55 -183 -122 -117 -370 -70 -397 75 -10 54
6 84 47 89 32 3 36 1 41 -23 3 -15 20 -43 39 -63 32 -33 39 -36 92 -36 105 0
159 60 135 149 -19 72 -65 101 -160 101 -56 0 -58 1 -69 31 -11 33 -8 49 12
49 16 0 137 112 137 128 0 9 -30 12 -110 12 l-110 0 0 38 c0 21 5 43 12 50 8
8 60 12 169 12 134 0 158 -2 163 -16z m-4254 -2029 l0 -215 35 0 35 0 0 -55 0
-55 -35 0 -35 0 0 -66 0 -65 -47 3 -48 3 -5 60 -5 60 -160 5 -160 5 -3 43 c-3
40 2 49 85 154 95 122 135 178 127 178 -3 0 9 20 27 45 18 25 37 45 42 45 5 0
27 16 48 35 26 24 49 35 69 35 l30 0 0 -215z m2163 181 c12 -75 11 -76 -143
-76 l-137 0 -7 -31 c-3 -17 -6 -44 -6 -60 l0 -29 78 0 c85 -1 135 -15 180 -51
89 -72 93 -244 8 -330 -129 -128 -396 -64 -396 96 0 35 4 47 18 51 9 3 25 10
35 15 24 13 34 5 41 -35 8 -42 53 -83 102 -92 45 -8 111 13 142 45 46 49 17
156 -51 189 -16 8 -72 16 -125 19 -79 5 -101 9 -119 26 -24 22 -30 56 -13 73
6 6 12 49 14 96 2 48 7 92 11 98 14 23 54 29 206 29 l156 1 6 -34z m1987 23
c0 -7 -27 -52 -60 -100 l-60 -89 37 0 c70 0 151 -30 192 -71 88 -89 86 -255
-6 -341 -125 -119 -358 -74 -401 77 -18 64 -20 93 -10 143 6 26 11 56 13 67 6
39 31 86 68 127 21 24 60 72 86 108 33 46 56 68 81 77 45 15 60 16 60 2z
m-6038 -4384 c2 -1485 1 -3154 -2 -3710 -4 -923 -5 -965 -10 -485 -9 968 -6
6909 4 6899 3 -2 6 -1219 8 -2704z m3939 2552 c20 -8 49 -32 65 -52 25 -33 29
-47 29 -101 0 -58 -3 -66 -32 -95 l-31 -32 30 -21 c52 -35 71 -70 76 -135 5
-76 -10 -120 -58 -169 -90 -89 -271 -86 -352 6 -48 54 -57 142 -23 212 7 14
10 30 8 36 -2 7 13 25 33 42 l36 30 -21 23 c-29 32 -35 58 -26 134 6 55 11 68
37 90 16 14 42 28 56 31 15 3 34 9 42 15 20 12 86 5 131 -14z m2126 -3 c52
-19 118 -89 132 -141 33 -125 14 -185 -132 -405 l-71 -108 -43 0 c-24 0 -43 3
-43 8 0 4 23 42 50 85 28 43 50 82 50 88 0 5 -21 9 -47 9 -97 1 -187 54 -219
127 -16 39 -15 134 3 215 11 51 64 105 116 119 23 6 53 15 67 19 30 10 80 4
137 -16z m-4127 7 c0 -10 -181 -419 -256 -579 -40 -84 -47 -94 -67 -88 -12 3
-28 6 -34 6 -27 0 -24 10 107 285 72 151 110 242 110 259 0 14 -19 16 -145 16
l-145 0 0 33 c1 39 18 64 50 70 49 9 380 7 380 -2z m-2003 -803 c-3 -8 -6 -5
-6 6 -1 11 2 17 5 13 3 -3 4 -12 1 -19z m0 -4495 c-1 -819 -2 -149 -2 1487 0
1636 1 2306 2 1488 2 -819 2 -2157 0 -2975z m1843 3366 c0 -120 0 -120 23
-113 12 3 45 28 72 54 61 57 90 73 114 65 43 -13 33 -37 -51 -122 l-83 -83
118 0 117 0 0 -55 0 -55 -115 0 -115 0 80 -76 c44 -42 80 -82 80 -88 0 -6 -16
-24 -35 -39 l-36 -29 -84 83 -85 83 0 -122 0 -122 -26 0 c-58 0 -64 11 -64
125 0 57 -4 106 -9 109 -5 3 -46 -30 -91 -74 l-83 -81 -24 22 c-31 30 -29 39
12 79 19 19 35 41 35 48 0 7 17 29 38 47 l37 35 -86 0 c-48 0 -101 3 -118 6
-27 6 -31 11 -31 39 0 48 20 58 131 64 l99 6 -70 70 c-38 39 -70 75 -70 82 0
13 52 53 69 53 7 0 41 -29 76 -65 36 -36 70 -65 75 -65 6 0 10 31 10 73 0 91
13 139 42 153 47 23 48 21 48 -107z m2210 85 c104 -47 178 -142 199 -257 25
-137 -48 -287 -178 -364 -43 -26 -54 -28 -161 -28 -127 0 -146 6 -229 73 -50
41 -96 128 -106 201 -8 58 7 145 34 202 11 23 18 45 16 50 -8 13 75 87 124
111 109 53 203 56 301 12z m1850 -59 l0 -55 125 0 c92 0 127 3 130 13 2 6 9
31 15 55 19 76 60 47 60 -44 0 -21 5 -23 63 -26 l62 -3 3 -37 3 -38 -65 0 -66
0 0 -120 0 -120 59 0 c63 0 71 -7 71 -56 0 -23 -3 -24 -65 -24 l-64 0 -3 -62
c-3 -60 -4 -63 -30 -66 -25 -3 -27 0 -34 45 -12 85 -9 83 -144 83 l-120 0 0
-65 0 -65 -30 0 c-28 0 -30 2 -30 40 0 21 -5 51 -12 65 -10 23 -17 25 -70 25
-58 0 -58 0 -58 30 0 24 6 33 26 40 14 6 29 8 33 5 4 -2 24 0 44 6 l37 10 0
89 c0 49 -4 100 -10 114 -9 24 -14 26 -70 26 -60 0 -60 0 -60 30 0 35 23 50
74 50 51 0 66 9 66 39 0 50 11 71 36 71 22 0 24 -4 24 -55z m-50 -2193 c42 -5
56 -11 58 -25 10 -50 125 -47 -1999 -47 -1944 0 -1979 0 -1979 19 0 11 12 29
28 40 l27 20 1905 0 c1048 -1 1930 -4 1960 -7z m-2100 -1712 c-8 -5 -22 -9
-30 -9 -10 0 -8 3 5 9 27 12 43 12 25 0z m-72 -22 c-16 -5 -28 -13 -28 -17 0
-5 -20 -16 -45 -25 -25 -10 -78 -39 -117 -65 -218 -143 -348 -379 -348 -633
l0 -88 30 0 c20 0 30 -5 30 -14 0 -36 56 -187 91 -247 67 -115 225 -252 328
-284 13 -4 20 -10 15 -14 -5 -3 -15 -18 -21 -32 -10 -24 -9 -28 15 -39 21 -10
23 -14 10 -17 -18 -5 -95 32 -173 82 -143 91 -275 276 -319 446 -49 191 -17
434 79 594 52 86 129 176 186 219 28 21 59 45 69 53 23 20 189 92 210 92 8 0
3 -5 -12 -11z m946 -914 c21 -8 20 -28 -4 -94 -72 -194 -217 -350 -405 -436
-80 -37 -211 -63 -315 -63 -75 0 -104 3 -197 24 -18 4 -20 9 -14 32 9 31 1 31
169 17 283 -22 535 127 672 397 16 30 32 72 35 92 7 37 22 45 59 31z m-4627
-91 c-3 -10 -5 -2 -5 17 0 19 2 27 5 18 2 -10 2 -26 0 -35z"/>
<path d="M4192 16948 l3 -133 170 -3 c217 -3 210 -7 210 120 0 73 -4 100 -18
121 l-17 27 -176 0 -175 0 3 -132z"/>
<path d="M4780 17061 c-5 -11 -10 -62 -10 -113 0 -141 -4 -138 188 -138 201 1
197 -2 197 123 0 72 -4 99 -18 120 l-17 27 -165 0 c-152 0 -165 -1 -175 -19z"/>
<path d="M6920 16889 l0 -122 61 6 c88 8 104 26 104 118 0 65 -2 73 -28 95
-22 19 -39 24 -83 24 l-54 0 0 -121z"/>
<path d="M7779 16984 c-22 -26 -25 -159 -5 -189 19 -29 66 -34 89 -10 35 34
32 160 -4 196 -23 23 -62 25 -80 3z"/>
<path d="M3340 12529 c-41 -50 -83 -104 -93 -120 -11 -16 -23 -29 -28 -29 -5
0 -9 -4 -9 -10 0 -6 43 -10 110 -10 l110 0 0 130 c0 72 -4 130 -8 130 -4 0
-41 -41 -82 -91z"/>
<path d="M7556 12490 c-90 -28 -124 -149 -63 -221 27 -32 77 -59 110 -59 32 0
119 38 134 59 40 54 13 161 -51 200 -41 26 -90 34 -130 21z"/>
<path d="M5422 10854 c-74 -51 -29 -154 66 -154 42 0 100 26 107 49 18 57 -40
121 -109 121 -23 0 -52 -7 -64 -16z"/>
<path d="M5420 10592 c-49 -24 -76 -80 -60 -127 23 -70 112 -102 192 -70 61
24 78 42 78 83 0 48 -36 98 -83 117 -49 20 -84 19 -127 -3z"/>
<path d="M7541 10842 c-53 -26 -76 -65 -76 -125 0 -84 51 -136 134 -137 77 0
117 18 142 64 38 72 4 161 -74 196 -52 24 -83 25 -126 2z"/>
<path d="M5423 9021 c-36 -9 -104 -57 -131 -92 -45 -57 -55 -164 -23 -234 20
-44 87 -110 129 -126 30 -12 130 -14 164 -4 46 14 105 46 125 68 26 28 53 99
53 137 0 50 -38 141 -72 178 -62 64 -162 94 -245 73z"/>
<path d="M7480 8790 l0 -121 128 3 127 3 3 85 c2 47 0 100 -3 118 l-6 32 -124
0 -125 0 0 -120z"/>
</g>
</svg>
