<svg xmlns="http://www.w3.org/2000/svg" width="1380" height="2774.667" viewBox="0 0 1035 2081"><path d="M283 138.6c-5.8.7-12.8 2-15.6 2.9-2.8.8-6.3 1.5-7.7 1.5-3.8 0-19.7 5.4-26.9 9.1-3.5 1.8-8.1 4.1-10.3 5.2-3.8 1.9-13.5 8.7-20.4 14.4-11.6 9.6-22.4 24-30.3 40.3-7.3 15-11.3 30.2-14.8 56-.6 3.8-.9 327.9-1 769.6v763l2.5 13c2.5 12.9 4.3 19.9 7.2 28.4 2.5 7.5 12.2 25.9 16.4 31.2 2.1 2.7 3.9 5.3 3.9 5.7 0 1.5 18.2 19 23.3 22.4 2.9 2 6.2 4.5 7.5 5.7 3 2.9 28.9 15.4 38.2 18.5 11.5 3.8 25 6.5 38.4 7.5 16.2 1.3 516 1.3 532.2 0 21.3-1.6 36.9-5.8 55.4-14.8 11.8-5.7 15.1-7.7 20.4-12.4 1.7-1.6 3.4-2.8 3.8-2.8 1.6 0 15.6-12.9 22.2-20.6 13.5-15.3 22.7-31.5 29-50.4 7.6-22.9 7-9.3 7.3-167.7.3-117 .6-142.3 1.7-142.3 1.8 0 3.1-23.3 3.1-54.5-.1-31.2-1.3-52.5-3.2-52.5-2 0-2-178.5 0-179.3 2.6-1 3.2-32.9 3.2-170.2 0-136.5-.5-163.3-3.1-164.8-2.1-1.2-2.1-235.7 0-235.7 2 0 2.8-15.7 2.9-52.5.1-35.6-.9-53.5-2.9-53.5-1.2 0-1.4-23.2-1.4-143.8 0-124.1-.2-145-1.5-153.2-4.8-29.9-18.4-57.5-38.4-78.4-24.2-25.1-55.2-40.8-88.9-45.1-10.9-1.3-43.6-1.5-277-1.4-217.1.1-266.6.4-275.2 1.5m-63.8 27.1c-1.2 1-3.8 2.9-5.8 4.3-6.9 4.7-17.6 15.5-24.3 24.5-15.8 21.2-23.2 43.2-25.1 74-.7 11.9-.8 11.4-.4-5.5.5-23.7.5-23.8 4.2-34.8 4.5-13.2 11.8-27.5 17-33 .6-.7 1.2-1.7 1.2-2.2 0-.4 2.7-3.5 6-6.8 3.3-3.4 6-5.9 6-5.7s1-.6 2.3-1.8 2.2-2.5 2-2.9c-.2-.3.9-1 2.5-1.6 1.5-.5 5.6-3.2 9.2-5.9s6.7-4.8 6.9-4.6c.2.1-.5 1.1-1.7 2m-55.5 124c-.2 1.6-.4.3-.4-2.7s.2-4.3.4-2.8c.2 1.6.2 4 0 5.5m771-.5c-.3.8-.6.5-.6-.6-.1-1.1.2-1.7.5-1.3.3.3.4 1.2.1 1.9m.1 583.5c-.2 320-.5 545.1-.8 500.3-.5-85.3-.7-879.1-.3-1007.8.2-40.8.5-74.2.8-74.2s.4 261.8.3 581.7m-771.1-575c-.3 1-.5.4-.5-1.2 0-1.7.2-2.4.5-1.8.2.7.2 2.1 0 3m0 7.5c-.3.7-.5.2-.5-1.2s.2-1.9.5-1.3c.2.7.2 1.9 0 2.5m0 10c-.3.7-.5.2-.5-1.2s.2-1.9.5-1.3c.2.7.2 1.9 0 2.5m0 18c-.3.7-.5.2-.5-1.2s.2-1.9.5-1.3c.2.7.2 1.9 0 2.5m171.5 33.4c10.9 1 12.3 2.3 12.3 11.8 0 6.9-.2 7.8-2.8 10.3l-2.7 2.8-18.5.3-18.5.4v6.9c0 6.7-.1 6.9-2.5 6.9-2.5 0-2.5-.1-2.5-7.8 0-8.7.3-9.3 4.7-11.6 2.6-1.3 6.3-1.6 18.9-1.6 13.2 0 16-.3 17.6-1.7 2.2-2 2.3-4.6.2-7.8l-1.6-2.5H321c-19.7 0-22-.3-22-2.7 0-3.8 15.5-5.4 36.2-3.7m64.1 1.9c3.4 2.2 3.7 3.8 3.7 21.7 0 15-.1 15.8-2 15.8-2 0-2.7-2.1-3.2-10l-.3-3.5-17.6-.3c-20.1-.3-18.9-.9-18.9 9 0 4.1-.3 4.8-2 4.8-1.8 0-2-.7-2-8.5v-8.4l3.3-1.8c2.6-1.5 6.5-1.9 20.2-2.3l17-.5.3-3.5c.2-2.5-.3-4.2-1.8-5.8-2-2.1-2.8-2.2-17.6-2.2H363l-1.2 2.5c-1.7 3.7-4.3 2.8-4.3-1.4-.1-2.4.6-3.7 2.5-5 4.2-3 5-3.1 21.2-2.7 12.2.4 16.2.8 18.1 2.1m59.3 0c3.2 2 4.4 7.3 4.4 18.6 0 10.7-1.6 16-5.2 18.1-2.8 1.4-28.7 2.4-38.4 1.3l-6.6-.7.6-5.1c1.3-10.2 1.5-21.3.5-25.6-.8-3.6-.7-4.7.7-6.2 2.4-2.6 4.2-2.8 23.8-2.3 13.6.3 18.5.8 20.2 1.9m46.7-1.8c8.2.5 10.1 1 12.2 2.9 2.4 2.3 2.5 2.6 2.5 16.9s-.1 14.6-2.5 16.9c-2.9 2.7-8.4 3.6-22.6 3.6-12.7 0-18.4-.9-20.8-3.2-1.9-1.7-2.1-3.1-2.1-12.6 0-5.9.3-13 .6-15.9.6-5 .8-5.2 5.3-7.2 5-2.2 10.9-2.5 27.4-1.4M732.2 380c1.9 2.3 2.4 6 .9 6-.5 0-1.2-1.1-1.5-2.4-1.4-5.5-11.1-5.6-13.1-.2-.8 2.4-.6 3 1.5 4.6 1.4 1.1 4.2 2.2 6.2 2.5 8.1 1.4 11.5 8 6.6 13.2-3 3.2-11.8 3.3-14.7.2-2.5-2.7-3.3-5.9-1.5-5.9.8 0 1.4.6 1.4 1.4 0 4 10.2 6.2 13.4 3 3.8-3.8 1.1-7.6-7-10-6.5-1.9-8.9-4.8-7.9-9.4.4-1.8 1.7-3.6 3.3-4.5 3.7-2.1 10.2-1.3 12.4 1.5m-47.2-1c0 .6-3.4 1-8.1 1h-8l.3 5.2.3 5.3 7 .5 7 .4-7 .6-7 .5-.3 6.7c-.2 3.8-.7 6.8-1.2 6.8-.6 0-1-5.8-1-14v-14h9c5.3 0 9 .4 9 1m22.2 1.5c5 4.6 5.2 17.5.4 22.3-2.3 2.4-3.6 2.7-10.6 3l-8 .4V378h7.8c6.9 0 8 .3 10.4 2.5m79-.4c6.7 3.6 6.2 23.8-.7 25.5-7.5 1.9-11.8-2.7-11.8-12.6 0-3.2.6-7.2 1.3-9 1.9-4.5 6.8-6.2 11.2-3.9m-22.7.8c-5.2.5-6 .9-6.6 3.1-1.5 5.4-1.2 5.8 3.4 5.3 6.1-.7 9.2 2 9.2 8 0 6.3-2.4 8.7-8.6 8.7-3.8 0-5.1-.5-6.3-2.2-1.8-2.6-2.1-4.8-.6-4.8.6 0 1 .7 1 1.5 0 2 3.5 3.7 7.3 3.3 4.2-.4 6.2-4.1 4.6-8.7-1.3-3.7-4.8-4.9-9.3-3.3-1.6.7-3.1 1-3.3.8-.3-.2-.1-3.1.3-6.5l.7-6.1 7.1.2 7.1.1zM749 396c0 .5-2.3 1-5.1 1-3.1 0-4.8-.4-4.4-1 .3-.6 2.6-1 5.1-1 2.4 0 4.4.4 4.4 1m-585.3 14.7c-.2 2.1-.4.4-.4-3.7s.2-5.8.4-3.8c.2 2.1.2 5.5 0 7.5m0 13.5c-.2 1.8-.4.4-.4-3.2s.2-5 .4-3.3c.2 1.8.2 4.8 0 6.5m0 7c-.3.8-.6.5-.6-.6-.1-1.1.2-1.7.5-1.3.3.3.4 1.2.1 1.9m0 11c-.2 1.3-.4.5-.4-1.7-.1-2.2.1-3.2.4-2.3.2 1 .2 2.8 0 4m0 6c-.3.7-.5.2-.5-1.2s.2-1.9.5-1.3c.2.7.2 1.9 0 2.5M345 652.5V686h-4.4c-4.3 0-4.3 0-5-4.1-.4-2.3-.6-14.6-.5-27.5 0-12.8-.2-23.7-.6-24.3-.3-.6-2.7-1.1-5.2-1.1-4.4 0-4.5-.1-3.8-2.7 1.4-5.7 4.1-7.1 13.3-7.2l6.2-.1zm217.2-30.6c5.8 3.7 8.8 9.6 8.8 17.4 0 3.2-.6 7.3-1.4 9.2-2.1 4.9-8.7 11.7-18.8 19.1-4.8 3.5-8.8 6.9-8.8 7.4 0 .6 5.6 1 14 1h14v10h-44v-5c0-2.8.4-5 .9-5 .8 0 4.7-2.9 13-9.7 1.9-1.5 4.6-3.5 6-4.4 6-3.6 13.8-11.8 15.1-15.8 2.6-7.9-2.2-16.3-9.9-17.6-6.8-1.1-12.4 2.3-14.1 8.7-1 3.6-1.3 3.8-5 3.8-4.6 0-4.9-.9-2.7-9.3 1.4-5.3 2.8-6.9 8.4-10.2 3-1.9 5.4-2.3 11.9-2.4 7.2-.1 8.5.2 12.6 2.8m216.2-1.3c.3.9.6 3.1.6 4.9 0 2.9-1 4.1-8 10.1-8.1 6.8-8.7 8.3-3.2 8.4 3.7 0 10.7 3.9 13.3 7.3 1.9 2.5 2.4 4.7 2.7 10.6.5 9.4-.8 13.7-5.5 18.3-12.2 11.7-37 7-39.7-7.5-1-5.4.6-8.4 4.7-8.9 3.2-.3 3.6-.1 4.1 2.3.3 1.5 2 4.3 3.9 6.3 3.2 3.3 3.9 3.6 9.2 3.6 10.5 0 15.9-6 13.5-14.9-1.9-7.2-6.5-10.1-16-10.1-5.6 0-5.8-.1-6.9-3.1-1.1-3.3-.8-4.9 1.2-4.9 1.6 0 13.7-11.2 13.7-12.8 0-.9-3-1.2-11-1.2h-11v-3.8c0-2.1.5-4.3 1.2-5 .8-.8 6-1.2 16.9-1.2 13.4 0 15.8.2 16.3 1.6M353 823.5V845h7v11h-7v13.1l-4.7-.3-4.8-.3-.5-6-.5-6-16-.5-16-.5-.3-4.3c-.3-4 .2-4.9 8.5-15.4 9.5-12.2 13.5-17.8 12.7-17.8-.3 0 .9-2 2.7-4.5s3.7-4.5 4.2-4.5 2.7-1.6 4.8-3.5c2.6-2.4 4.9-3.5 6.9-3.5h3zm216.3-18.1c1.2 7.5 1.1 7.6-14.3 7.6h-13.7l-.7 3.1c-.3 1.7-.6 4.4-.6 6v2.9h7.8c8.5.1 13.5 1.5 18 5.1 8.9 7.2 9.3 24.4.8 33-12.9 12.8-39.6 6.4-39.6-9.6 0-3.5.4-4.7 1.8-5.1.9-.3 2.5-1 3.5-1.5 2.4-1.3 3.4-.5 4.1 3.5.8 4.2 5.3 8.3 10.2 9.2 4.5.8 11.1-1.3 14.2-4.5 4.6-4.9 1.7-15.6-5.1-18.9-1.6-.8-7.2-1.6-12.5-1.9-7.9-.5-10.1-.9-11.9-2.6-2.4-2.2-3-5.6-1.3-7.3.6-.6 1.2-4.9 1.4-9.6.2-4.8.7-9.2 1.1-9.8 1.4-2.3 5.4-2.9 20.6-2.9l15.6-.1zm198.7-2.3c0 .7-2.7 5.2-6 10l-6 8.9h3.7c7 0 15.1 3 19.2 7.1 8.8 8.9 8.6 25.5-.6 34.1-12.5 11.9-35.8 7.4-40.1-7.7-1.8-6.4-2-9.3-1-14.3.6-2.6 1.1-5.6 1.3-6.7.6-3.9 3.1-8.6 6.8-12.7 2.1-2.4 6-7.2 8.6-10.8 3.3-4.6 5.6-6.8 8.1-7.7 4.5-1.5 6-1.6 6-.2m-603.8 438.4c.2 148.5.1 315.4-.2 371-.4 92.3-.5 96.5-1 48.5-.9-96.8-.6-690.9.4-689.9.3.2.6 121.9.8 270.4m393.9-255.2c2 .8 4.9 3.2 6.5 5.2 2.5 3.3 2.9 4.7 2.9 10.1 0 5.8-.3 6.6-3.2 9.5l-3.1 3.2 3 2.1c5.2 3.5 7.1 7 7.6 13.5.5 7.6-1 12-5.8 16.9-9 8.9-27.1 8.6-35.2-.6-4.8-5.4-5.7-14.2-2.3-21.2.7-1.4 1-3 .8-3.6-.2-.7 1.3-2.5 3.3-4.2l3.6-3-2.1-2.3c-2.9-3.2-3.5-5.8-2.6-13.4.6-5.5 1.1-6.8 3.7-9 1.6-1.4 4.2-2.8 5.6-3.1 1.5-.3 3.4-.9 4.2-1.5 2-1.2 8.6-.5 13.1 1.4m212.6.3c5.2 1.9 11.8 8.9 13.2 14.1 3.3 12.5 1.4 18.5-13.2 40.5l-7.1 10.8h-4.3c-2.4 0-4.3-.3-4.3-.8 0-.4 2.3-4.2 5-8.5 2.8-4.3 5-8.2 5-8.8 0-.5-2.1-.9-4.7-.9-9.7-.1-18.7-5.4-21.9-12.7-1.6-3.9-1.5-13.4.3-21.5 1.1-5.1 6.4-10.5 11.6-11.9 2.3-.6 5.3-1.5 6.7-1.9 3-1 8-.4 13.7 1.6m-412.7-.7c0 1-18.1 41.9-25.6 57.9-4 8.4-4.7 9.4-6.7 8.8-1.2-.3-2.8-.6-3.4-.6-2.7 0-2.4-1 10.7-28.5 7.2-15.1 11-24.2 11-25.9 0-1.4-1.9-1.6-14.5-1.6H315v-3.3c.1-3.9 1.8-6.4 5-7 4.9-.9 38-.7 38 .2m-200.3 80.3c-.3.8-.6.5-.6-.6-.1-1.1.2-1.7.5-1.3.3.3.4 1.2.1 1.9m0 449.5c-.1 81.9-.2 14.9-.2-148.7s.1-230.6.2-148.8c.2 81.9.2 215.7 0 297.5M342 1179.1c0 12 0 12 2.3 11.3 1.2-.3 4.5-2.8 7.2-5.4 6.1-5.7 9-7.3 11.4-6.5 4.3 1.3 3.3 3.7-5.1 12.2l-8.3 8.3H373v11h-23l8 7.6c4.4 4.2 8 8.2 8 8.8s-1.6 2.4-3.5 3.9l-3.6 2.9-8.4-8.3-8.5-8.3v24.4h-2.6c-5.8 0-6.4-1.1-6.4-12.5 0-5.7-.4-10.6-.9-10.9s-4.6 3-9.1 7.4l-8.3 8.1-2.4-2.2c-3.1-3-2.9-3.9 1.2-7.9 1.9-1.9 3.5-4.1 3.5-4.8s1.7-2.9 3.8-4.7l3.7-3.5h-8.6c-4.8 0-10.1-.3-11.8-.6-2.7-.6-3.1-1.1-3.1-3.9 0-4.8 2-5.8 13.1-6.4l9.9-.6-7-7c-3.8-3.9-7-7.5-7-8.2 0-1.3 5.2-5.3 6.9-5.3.7 0 4.1 2.9 7.6 6.5 3.6 3.6 7 6.5 7.5 6.5.6 0 1-3.1 1-7.3 0-9.1 1.3-13.9 4.2-15.3 4.7-2.3 4.8-2.1 4.8 10.7m221-8.5c10.4 4.7 17.8 14.2 19.9 25.7 2.5 13.7-4.8 28.7-17.8 36.4-4.3 2.6-5.4 2.8-16.1 2.8-12.7 0-14.6-.6-22.9-7.3-5-4.1-9.6-12.8-10.6-20.1-.8-5.8.7-14.5 3.4-20.2 1.1-2.3 1.8-4.5 1.6-5-.8-1.3 7.5-8.7 12.4-11.1 10.9-5.3 20.3-5.6 30.1-1.2m185 5.9v5.5h12.5c9.2 0 12.7-.3 13-1.3.2-.6.9-3.1 1.5-5.5 1.9-7.6 6-4.7 6 4.4 0 2.1.5 2.3 6.3 2.6l6.2.3.3 3.7.3 3.8H781v24h5.9c6.3 0 7.1.7 7.1 5.6 0 2.3-.3 2.4-6.5 2.4h-6.4l-.3 6.2c-.3 6-.4 6.3-3 6.6-2.5.3-2.7 0-3.4-4.5-1.2-8.5-.9-8.3-14.4-8.3h-12v13h-3c-2.8 0-3-.2-3-4 0-2.1-.5-5.1-1.2-6.5-1-2.3-1.7-2.5-7-2.5-5.8 0-5.8 0-5.8-3 0-2.4.6-3.3 2.6-4 1.4-.6 2.9-.8 3.3-.5.4.2 2.4 0 4.4-.6l3.7-1v-8.9c0-4.9-.4-10-1-11.4-.9-2.4-1.4-2.6-7-2.6-6 0-6 0-6-3 0-3.5 2.3-5 7.4-5s6.6-.9 6.6-3.9c0-5 1.1-7.1 3.6-7.1 2.2 0 2.4.4 2.4 5.5m-5 219.3c4.2.5 5.6 1.1 5.8 2.5 1 5 12.5 4.7-199.9 4.7-194.4 0-197.9 0-197.9-1.9 0-1.1 1.2-2.9 2.8-4l2.7-2H547c104.8.1 193 .4 196 .7M533 1567c-.8.5-2.2.9-3 .9-1 0-.8-.3.5-.9 2.7-1.2 4.3-1.2 2.5 0m-7.2 2.2c-1.6.5-2.8 1.3-2.8 1.7 0 .5-2 1.6-4.5 2.5-2.5 1-7.8 3.9-11.7 6.5-21.8 14.3-34.8 37.9-34.8 63.3v8.8h3c2 0 3 .5 3 1.4 0 3.6 5.6 18.7 9.1 24.7 6.7 11.5 22.5 25.2 32.8 28.4 1.3.4 2 1 1.5 1.4-.5.3-1.5 1.8-2.1 3.2-1 2.4-.9 2.8 1.5 3.9 2.1 1 2.3 1.4 1 1.7-1.8.5-9.5-3.2-17.3-8.2-14.3-9.1-27.5-27.6-31.9-44.6-4.9-19.1-1.7-43.4 7.9-59.4 5.2-8.6 12.9-17.6 18.6-21.9 2.8-2.1 5.9-4.5 6.9-5.3 2.3-2 18.9-9.2 21-9.2.8 0 .3.5-1.2 1.1m94.6 91.4c2.1.8 2 2.8-.4 9.4-7.2 19.4-21.7 35-40.5 43.6-8 3.7-21.1 6.3-31.5 6.3-7.5 0-10.4-.3-19.7-2.4-1.8-.4-2-.9-1.4-3.2.9-3.1.1-3.1 16.9-1.7 28.3 2.2 53.5-12.7 67.2-39.7 1.6-3 3.2-7.2 3.5-9.2.7-3.7 2.2-4.5 5.9-3.1m-462.7 9.1c-.3 1-.5.2-.5-1.7s.2-2.7.5-1.8c.2 1 .2 2.6 0 3.5"/><path d="m419.2 386.2.3 13.3 17 .3c21.7.3 21 .7 21-12 0-7.3-.4-10-1.8-12.1L454 373h-35.1zm58.8-11.3c-.5 1.1-1 6.2-1 11.3 0 14.1-.4 13.8 18.8 13.8 20.1-.1 19.7.2 19.7-12.3 0-7.2-.4-9.9-1.8-12L512 373h-16.5c-15.2 0-16.5.1-17.5 1.9m214 17.2v12.2l6.1-.6c8.8-.8 10.4-2.6 10.4-11.8 0-6.5-.2-7.3-2.8-9.5-2.2-1.9-3.9-2.4-8.3-2.4H692zm85.9-9.5c-2.2 2.6-2.5 15.9-.5 18.9 1.9 2.9 6.6 3.4 8.9 1 3.5-3.4 3.2-16-.4-19.6-2.3-2.3-6.2-2.5-8-.3M334 828.1c-4.1 5-8.3 10.4-9.3 12-1.1 1.6-2.3 2.9-2.8 2.9s-.9.4-.9 1 4.3 1 11 1h11v-13c0-7.2-.4-13-.8-13s-4.1 4.1-8.2 9.1m421.6 3.9c-9 2.8-12.4 14.9-6.3 22.1 2.7 3.2 7.7 5.9 11 5.9 3.2 0 11.9-3.8 13.4-5.9 4-5.4 1.3-16.1-5.1-20-4.1-2.6-9-3.4-13-2.1M542.2 995.6c-7.4 5.1-2.9 15.4 6.6 15.4 4.2 0 10-2.6 10.7-4.9 1.8-5.7-4-12.1-10.9-12.1-2.3 0-5.2.7-6.4 1.6m-.2 26.2c-4.9 2.4-7.6 8-6 12.7 2.3 7 11.2 10.2 19.2 7 6.1-2.4 7.8-4.2 7.8-8.3 0-4.8-3.6-9.8-8.3-11.7-4.9-2-8.4-1.9-12.7.3m212.1-25c-5.3 2.6-7.6 6.5-7.6 12.5 0 8.4 5.1 13.6 13.4 13.7 7.7 0 11.7-1.8 14.2-6.4 3.8-7.2.4-16.1-7.4-19.6-5.2-2.4-8.3-2.5-12.6-.2m-211.8 182.1c-3.6.9-10.4 5.7-13.1 9.2-4.5 5.7-5.5 16.4-2.3 23.4 2 4.4 8.7 11 12.9 12.6 3 1.2 13 1.4 16.4.4 4.6-1.4 10.5-4.6 12.5-6.8 2.6-2.8 5.3-9.9 5.3-13.7 0-5-3.8-14.1-7.2-17.8-6.2-6.4-16.2-9.4-24.5-7.3M748 1202v12.1l12.8-.3 12.7-.3.3-8.5c.2-4.7 0-10-.3-11.8l-.6-3.2H748z"/></svg>