<svg xmlns="http://www.w3.org/2000/svg" width="135" height="328" fill="none" viewBox="0 0 135 328"><path fill="#26652f" fill-rule="evenodd" d="M95.668 0h-8.023c-.476 1.492-1.76 2.561-3.27 2.561S81.58 1.492 81.105 0h-7.1c-.475 1.492-1.76 2.561-3.27 2.561-1.509 0-2.793-1.069-3.27-2.561h-8.484c-.476 1.492-1.76 2.561-3.27 2.561S52.917 1.492 52.44 0h-7.215c-.476 1.492-1.76 2.561-3.27 2.561S39.162 1.492 38.686 0h-8.139c-.476 1.492-1.76 2.561-3.27 2.561S24.483 1.492 24.007 0H0v85.368c1.583.356 2.774 1.906 2.774 3.765 0 1.858-1.191 3.409-2.774 3.765v8.606c1.583.356 2.774 1.906 2.774 3.765 0 1.858-1.191 3.409-2.774 3.765v7.581c1.583.356 2.774 1.907 2.774 3.765S1.583 123.789 0 124.146v9.118c1.583.356 2.774 1.906 2.774 3.765 0 1.858-1.191 3.409-2.774 3.765v7.709c1.583.356 2.774 1.907 2.774 3.765S1.583 155.677 0 156.033v8.735c1.583.356 2.774 1.906 2.774 3.765 0 1.858-1.191 3.409-2.774 3.765v9.374c1.583.356 2.774 1.906 2.774 3.765S1.583 188.846 0 189.202v7.71c1.583.356 2.774 1.906 2.774 3.765 0 1.858-1.191 3.409-2.774 3.765v8.734c1.583.356 2.774 1.906 2.774 3.765 0 1.858-1.191 3.409-2.774 3.765v71.281h135V202.55c-1.407-.49-2.427-1.946-2.427-3.666s1.02-3.176 2.427-3.666v-89.869c-1.407-.49-2.427-1.946-2.427-3.666s1.02-3.176 2.427-3.666v-9.316c-1.407-.49-2.427-1.946-2.427-3.666s1.02-3.177 2.427-3.666V0h-32.792c-.476 1.492-1.76 2.561-3.27 2.561S96.144 1.492 95.668 0m18.99 31.888c5.362 0 9.709-4.816 9.709-10.757s-4.347-10.758-9.709-10.758-9.709 4.817-9.709 10.758 4.347 10.757 9.709 10.757" clip-rule="evenodd" style="fill:#26652f;fill:color(display-p3 .149 .3961 .1843);fill-opacity:1"/><path stroke="#143319" d="m2.716 105.397 16.24 14.471v44.31l16.874 18.698h33M2.716 120.509l13.465 12.934v33.041l19.65 21.002h32.998M2.716 136.901l10.46 11.141v20.491l22.654 23.563h33M2.716 152.525l7.917 8.58v9.989l25.197 25.101h33M2.716 168.533l33.114 32.016h33-49.875m-16.24-15.24 16.24 15.24m0 0H2.715m.752 17.673h11.558l15.95-17.673h37.218" style="stroke:#143319;stroke:color(display-p3 .0792 .2 .0964);stroke-opacity:1"/><path stroke="#143319" d="M46.463 42.518 36.292 54.556v110.391h15.72l17.452 14.343M50.162 43.414l-9.247 11.142V160.08h11.732l16.817 14.791M55.941 42.518v113.465l19.88 19.465M58.946 42.518v111.928l5.548 5.635m12.945 11.781-12.945-11.781m0-117.563V160.08" style="stroke:#143319;stroke:color(display-p3 .0792 .2 .0964);stroke-opacity:1"/><path stroke="#143319" d="M67.73 43.286v115.898l9.478 8.837v7.171m20.343-74.277H83.219v10.757l-12.021 15.624v30.352l9.247 10.373v8.452m17.106-72.997H86.224v8.709l-11.559 15.111v30.352l8.554 9.604v9.221M2.773 88.877l19.418 16.904v57.373l14.564 16.392h33.287" style="stroke:#143319;stroke:color(display-p3 .0792 .2 .0964);stroke-opacity:1"/><path fill="#fff" d="M33.87 224.746c-3.474 0-6.947.004-10.42 0-4.972-.004-8.65-4.118-8.65-9.663 0-6.361-.017-12.719.009-19.08.01-2.143.749-3.935 2.529-4.944 1.88-1.062 3.827-1.145 5.642.179 1.726 1.259 2.137 3.249 2.12 5.402-.009 1.746-.002 3.496-.038 5.241-.01.526.187.605.591.605 5.302-.011 10.6-.004 15.903-.011 1.12-.003 1.641-.608 1.648-1.853.01-1.86-.003-3.724.003-5.585.003-1.033.193-1.241 1.137-1.255.592-.007 1.183 0 1.774.01.437.011.79.233.781.748-.051 2.544.209 5.102-.132 7.635-.321 2.397-1.661 3.821-3.804 4.175a11.5 11.5 0 0 1-1.918.161c-5.068-.011-10.138.011-15.205-.025-.668-.004-.816.211-.781.905.064 1.284-.003 2.579.084 3.86.093 1.349.767 2.025 1.988 2.168q.498.06 1 .061 6.058.006 12.12 0c.36 0 .72-.021 1.076-.071 1.093-.151 1.729-.795 1.867-2.022.08-.73.357-.991 1-.944a18 18 0 0 0 2.005.003c.543-.025.713.258.732.823.1 3.256-1.745 5.688-4.633 6.093-.714.1-1.43.154-2.153.15-4.142-.011-8.284.004-12.429-.014a9.6 9.6 0 0 1-2.069-.215c-2.828-.637-4.28-2.701-4.29-6.064-.01-4.239 0-8.479-.006-12.718 0-.859-.026-1.714-.064-2.573-.042-.984-.363-1.381-1.112-1.427-.925-.057-1.417.315-1.571 1.223a6 6 0 0 0-.07 1.024c-.004 6.046-.004 12.088-.004 18.134 0 3.424 1.992 5.653 5.051 5.653h20.61c3.007 0 5.009-2.236 5.009-5.602.003-6.276 0-12.547 0-18.822 0-3.424-1.986-5.646-5.048-5.646-4.27 0-8.544.004-12.814-.003-1.26 0-2.009-.569-2.211-1.646-.25-1.324.537-2.551 1.751-2.558 4.733-.025 9.472-.125 14.202.043 4.386.15 7.853 4.404 7.857 9.277v19.766c0 5.184-3.737 9.373-8.416 9.398-3.55.022-7.1.004-10.651.004" style="fill:#fff;fill-opacity:1"/><rect width="29.589" height="32.785" x="68.77" y="172.631" fill="#181818" rx="2" style="fill:#181818;fill:color(display-p3 .0958 .0958 .0958);fill-opacity:1"/><path stroke="#2d2d2d" stroke-width=".5" d="M71.641 172.631v-2.689m2.543 2.689v-2.689m2.311 2.689v-2.689m2.312 2.689v-2.689m2.311 2.689v-2.689m2.313 2.689v-2.689m2.311 2.689v-2.689m2.311 2.689v-2.689m2.311 2.689v-2.689m2.313 2.689v-2.689m2.311 2.689v-2.689m-23.347 38.162v-2.689m2.543 2.689v-2.689m2.311 2.689v-2.689m2.312 2.689v-2.689m2.311 2.689v-2.689m2.313 2.689v-2.689m2.311 2.689v-2.689m2.311 2.689v-2.689m2.311 2.689v-2.689m2.313 2.689v-2.689m2.311 2.689v-2.689m3.372-29.577h2.428m-2.428 2.818h2.428m-2.428 2.561h2.428m-2.428 2.561h2.428m-2.428 2.562h2.428m-2.428 2.561h2.428m-2.428 2.561h2.428m-2.428 2.561h2.428m-2.428 2.562h2.428m-2.428 2.561h2.428m-2.428 2.561h2.428m-34.444-25.869h2.427m-2.427 2.818h2.427m-2.427 2.561h2.427m-2.427 2.561h2.427m-2.427 2.562h2.427m-2.427 2.561h2.427m-2.427 2.561h2.427m-2.427 2.561h2.427m-2.427 2.562h2.427m-2.427 2.561h2.427m-2.427 2.561h2.427" style="stroke:#2d2d2d;stroke:color(display-p3 .175 .175 .175);stroke-opacity:1"/><rect width="21.498" height="38.163" x="89.808" y="55.196" fill="#d9d9d9" rx="4" style="fill:#d9d9d9;fill:color(display-p3 .851 .851 .851);fill-opacity:1"/><rect width="9.015" height="18.697" x="96.049" y="64.288" fill="#000" rx="4.508" style="fill:#000;fill-opacity:1"/><rect width="6.588" height="7.428" x="97.09" y="47.768" fill="#a8a7a7" rx="3.294" style="fill:#a8a7a7;fill:color(display-p3 .6583 .6556 .6556);fill-opacity:1"/><rect width="6.588" height="7.428" x="97.09" y="92.59" fill="#a8a7a7" rx="3.294" style="fill:#a8a7a7;fill:color(display-p3 .6583 .6556 .6556);fill-opacity:1"/><rect width="11.558" height="4.866" x="94.547" y="54.043" fill="#000" rx="2.433" style="fill:#000;fill-opacity:1"/><rect width="11.558" height="4.866" x="94.547" y="90.157" fill="#000" rx="2.433" style="fill:#000;fill-opacity:1"/><path fill="#fff" d="M84.596 58.804q0 .333.072.587.075.258.207.429a.88.88 0 0 0 .735.35q.459 0 .691-.334.234-.334.233-1v-.842h-1.938zm-2.648 2.628v-.683q0-.21.147-.31l1.834-1.477a.4.4 0 0 0 .122-.147.54.54 0 0 0 .04-.238v-.583h-2.143v-.767h5.135v1.608q0 .54-.1.933a1.8 1.8 0 0 1-.284.647q-.187.258-.451.382-.262.123-.588.123a1.33 1.33 0 0 1-.935-.373 1.6 1.6 0 0 1-.32-.441 2.3 2.3 0 0 1-.2-.588.7.7 0 0 1-.218.254zm.566 4.759-.566-.004v-3.505h5.135v3.505h-.567v-2.735h-1.705v2.215h-.545v-2.215h-1.752zm3.766 4.459a.3.3 0 0 1-.083-.079.2.2 0 0 1-.025-.099.3.3 0 0 1 .061-.159 2.4 2.4 0 0 0 .269-.56q.06-.19.06-.464.001-.258-.064-.456-.06-.195-.168-.33a.71.71 0 0 0-.566-.266.55.55 0 0 0-.358.115q-.141.12-.24.31-.1.195-.176.437-.072.245-.15.5a6 6 0 0 1-.18.5q-.096.246-.247.437-.15.195-.369.31a1.1 1.1 0 0 1-.537.118q-.337 0-.635-.126a1.45 1.45 0 0 1-.512-.374 1.7 1.7 0 0 1-.344-.6 2.4 2.4 0 0 1-.125-.805q0-.556.179-1.008.183-.453.49-.775l.33.223a.3.3 0 0 1 .065.075q.029.048.029.103a.2.2 0 0 1-.04.115 2 2 0 0 1-.093.151l-.126.19a1.7 1.7 0 0 0-.222.557 2 2 0 0 0-.035.393q0 .273.068.488.067.214.19.361a.84.84 0 0 0 .68.31q.233 0 .38-.12a.9.9 0 0 0 .25-.305q.102-.19.17-.436l.143-.5q.075-.255.172-.5.096-.247.25-.438.154-.19.384-.31.232-.114.573-.114.272 0 .527.115.255.12.451.341.198.226.316.552.118.33.118.754 0 .476-.136.866-.137.393-.395.69zm-3.766 5.388-.566-.004v-3.506h5.135v3.506h-.567v-2.735h-1.705v2.215h-.545v-2.215h-1.752zm3.984 5.396v-1.842h-4.55v-.766h4.55V76.98h.584v4.454zM18.93 14.952q0 .33.067.567.069.239.19.39a.76.76 0 0 0 .294.226q.172.07.376.071a.74.74 0 0 0 .627-.314q.233-.313.233-.94V13.72H18.93zm4.034-1.231h-1.752v1.016q0 .326.064.564.064.242.18.397a.7.7 0 0 0 .275.234q.166.075.358.075.456 0 .663-.301.212-.302.212-.937zm.548 1.048q0 .525-.093.901-.093.381-.265.623a1.04 1.04 0 0 1-.423.362 1.3 1.3 0 0 1-.56.115 1.04 1.04 0 0 1-.688-.262 1.4 1.4 0 0 1-.271-.334 2 2 0 0 1-.194-.468q-.108.628-.405.94-.294.318-.774.318-.325 0-.595-.135a1.3 1.3 0 0 1-.462-.389 1.9 1.9 0 0 1-.3-.627 3.2 3.2 0 0 1-.105-.85v-2.008h5.135zm-4.551 7.023h-.584v-3.228h5.135v.766h-4.55zm-.017 4.837-.567-.005V23.12h5.135v3.506h-.566V23.89H21.24v2.215h-.544V23.89h-1.753zm1.852 1.319v1.96h-.541v-1.96zm-.208 6.178q.222 0 .405-.072a.84.84 0 0 0 .319-.202.9.9 0 0 0 .208-.322q.075-.19.075-.433 0-.508-.269-.805-.265-.294-.738-.366zm-1.702.571a1.4 1.4 0 0 1-.25-.313 2 2 0 0 1-.173-.393 2.5 2.5 0 0 1-.1-.429 3 3 0 0 1-.036-.44q0-.418.126-.77.129-.35.372-.608.247-.255.61-.397.361-.143.83-.143.38 0 .71.127a1.65 1.65 0 0 1 .95.965q.14.35.14.786 0 .36-.112.667a1.5 1.5 0 0 1-.315.532 1.4 1.4 0 0 1-.509.353q-.3.127-.688.127-.15 0-.2-.036t-.05-.135v-2.687q-.345.012-.599.103-.255.094-.426.262a1.1 1.1 0 0 0-.255.397 1.5 1.5 0 0 0-.082.516q0 .266.053.456a2.4 2.4 0 0 0 .24.564.33.33 0 0 1 .058.163q0 .087-.061.135zm-.509 4.657v-.679q0-.087.04-.139a.5.5 0 0 1 .093-.08l1.422-1.012-.1-.035a.3.3 0 0 1-.086-.048l-1.236-.937a1 1 0 0 1-.093-.087.18.18 0 0 1-.04-.123v-.631l1.864 1.409 1.766-1.354v.68q0 .086-.025.126a.3.3 0 0 1-.072.072l-1.361.988q.104.031.2.1l1.147.865q.05.036.079.075.032.045.032.103v.651l-1.734-1.353zm.875 1.839q-.238.194-.334.424a1.3 1.3 0 0 0-.096.517q0 .563.361.865.363.302 1.032.302.355 0 .61-.072.255-.068.415-.198a.76.76 0 0 0 .24-.322q.075-.19.075-.433 0-.345-.143-.607a1.7 1.7 0 0 0-.405-.476zm2.192-.036q.284.255.456.587.172.334.172.763 0 .35-.122.63a1.25 1.25 0 0 1-.355.481 1.6 1.6 0 0 1-.58.306 2.7 2.7 0 0 1-.8.107q-.401 0-.748-.119a1.8 1.8 0 0 1-.599-.345 1.6 1.6 0 0 1-.397-.548 1.8 1.8 0 0 1-.144-.727q0-.37.111-.635a1.5 1.5 0 0 1 .316-.464h-1.606v-.711h4.859v.425q0 .15-.133.186zm-1.433 6.432a6 6 0 0 0-.072-.834 2.5 2.5 0 0 0-.143-.56.8.8 0 0 0-.211-.313.43.43 0 0 0-.273-.096.55.55 0 0 0-.247.052.5.5 0 0 0-.172.139.7.7 0 0 0-.096.21q-.03.123-.03.262 0 .187.033.342.037.155.1.29.066.139.155.261.09.127.204.247zm1.484-2.283q.29.334.433.718.143.386.143.854 0 .337-.1.6-.1.261-.28.44-.178.18-.433.27t-.559.091h-2.322v-.313q0-.104.029-.159.032-.055.122-.087l.344-.08a4 4 0 0 1-.237-.31 2 2 0 0 1-.172-.317 2 2 0 0 1-.104-.357 2 2 0 0 1-.039-.417q0-.234.057-.44.06-.208.18-.362a.9.9 0 0 1 .297-.242 1 1 0 0 1 .43-.088q.214 0 .412.131.2.132.355.425.154.294.25.766.101.473.115 1.16h.283q.423 0 .638-.203.218-.203.218-.591 0-.262-.06-.441a1.6 1.6 0 0 0-.133-.306 5 5 0 0 0-.133-.222.34.34 0 0 1-.057-.183q0-.07.032-.123a.4.4 0 0 1 .086-.087zM21.48 50.5q.134.131.24.277a1.8 1.8 0 0 1 .301.66q.043.185.043.4 0 .33-.1.58-.097.255-.28.42-.179.17-.433.259-.255.087-.563.087h-2.31v-.71h2.31q.413 0 .638-.211.23-.207.23-.631 0-.314-.137-.588a1.9 1.9 0 0 0-.369-.5h-2.673v-.71h3.63v.424q0 .15-.133.187zm-.337 6.856a1.1 1.1 0 0 0 .334-.428 1.3 1.3 0 0 0 .096-.517q0-.56-.361-.861-.363-.302-1.032-.302a2.4 2.4 0 0 0-.61.068 1.1 1.1 0 0 0-.415.198.8.8 0 0 0-.237.322 1.2 1.2 0 0 0-.075.433q0 .349.143.607.144.262.405.48zm2.512.707h-5.278v-.42q0-.152.133-.191l.44-.064a2.2 2.2 0 0 1-.45-.587 1.6 1.6 0 0 1-.173-.763q0-.346.118-.627.123-.282.355-.48.233-.2.58-.306.348-.108.8-.107.401 0 .745.119.348.12.602.341.255.222.398.544.147.325.146.73 0 .37-.114.632a1.5 1.5 0 0 1-.312.472h2.01zm-3.067 4.284q.222 0 .405-.071a.84.84 0 0 0 .319-.203.9.9 0 0 0 .208-.321q.075-.191.075-.433 0-.509-.269-.806-.265-.294-.738-.365zm-1.702.572a1.4 1.4 0 0 1-.25-.314 2 2 0 0 1-.173-.393 2.5 2.5 0 0 1-.1-.429 3 3 0 0 1-.036-.44q0-.417.126-.77.129-.35.372-.608.247-.255.61-.397.361-.143.83-.143.38 0 .71.127a1.65 1.65 0 0 1 .95.965q.14.35.14.786 0 .36-.112.667a1.5 1.5 0 0 1-.315.532 1.4 1.4 0 0 1-.509.353q-.3.127-.688.127-.15 0-.2-.035-.05-.037-.05-.135v-2.688a2 2 0 0 0-.599.103q-.255.096-.426.262a1.1 1.1 0 0 0-.255.397 1.5 1.5 0 0 0-.082.516q0 .267.053.457a2.4 2.4 0 0 0 .24.564.33.33 0 0 1 .058.162q0 .088-.061.135zm2.394 2.079q.372.19.58.468.212.278.212.679 0 .127-.026.242a.7.7 0 0 1-.078.21l-.477-.051q-.09-.024-.09-.12 0-.054.022-.162.021-.107.021-.242 0-.19-.05-.342a.8.8 0 0 0-.15-.266 1.1 1.1 0 0 0-.244-.21 2 2 0 0 0-.33-.167h-2.293v-.71h3.63v.405q0 .115-.04.159-.039.043-.136.059zm-7.826-33.572-3.63-1.64v-.635l3.63-1.64v.576a.24.24 0 0 1-.04.143.2.2 0 0 1-.093.076l-2.336 1.02q-.132.048-.258.083l-.25.068q.125.032.25.067.126.036.258.088l2.336 1.032q.058.024.094.08.039.054.039.13zm-3.142 4.606h-.488v-3.049h.488v1.22h3.5q.158 0 .32.011l-.786-1.012a.3.3 0 0 1-.05-.103.3.3 0 0 1 0-.096.3.3 0 0 1 .029-.083.2.2 0 0 1 .046-.056l.276-.222 1.322 1.695v.576h-4.657zm-.094 1.482q.094 0 .176.035.083.04.143.104a.52.52 0 0 1 .133.353.53.53 0 0 1-.133.353.5.5 0 0 1-.143.108.41.41 0 0 1-.495-.107.5.5 0 0 1-.093-.16.53.53 0 0 1 0-.389.5.5 0 0 1 .094-.158.5.5 0 0 1 .14-.103.5.5 0 0 1 .178-.036m2.172 6.279q-.675 0-1.168-.163a2.3 2.3 0 0 1-.814-.437 1.74 1.74 0 0 1-.48-.659 2.1 2.1 0 0 1-.157-.81q0-.436.157-.813.158-.374.48-.651.322-.279.814-.437.495-.159 1.168-.159t1.168.159.817.437q.325.278.483.65.158.378.158.815 0 .432-.158.81a1.7 1.7 0 0 1-.483.659q-.323.277-.817.436-.496.163-1.168.163m0-.734q.587 0 .985-.112a1.8 1.8 0 0 0 .645-.294 1.05 1.05 0 0 0 .348-.424 1.23 1.23 0 0 0 0-1.009 1.05 1.05 0 0 0-.348-.424 1.9 1.9 0 0 0-.645-.294 4 4 0 0 0-.985-.107q-.588 0-.986.107a1.9 1.9 0 0 0-.641.294q-.244.182-.351.424a1.26 1.26 0 0 0 0 1.009q.107.242.351.425.243.186.641.293.398.111.986.111m-2.172 1.891q.094 0 .176.035.083.04.143.104a.52.52 0 0 1 .133.353.53.53 0 0 1-.133.353.5.5 0 0 1-.143.108.41.41 0 0 1-.495-.107.5.5 0 0 1-.093-.16.5.5 0 0 1-.035-.194q0-.104.035-.194a.5.5 0 0 1 .094-.16.5.5 0 0 1 .14-.103.5.5 0 0 1 .178-.035m2.172 6.279q-.675 0-1.168-.163a2.3 2.3 0 0 1-.814-.436 1.74 1.74 0 0 1-.48-.66 2.1 2.1 0 0 1-.157-.81q0-.436.157-.813.158-.373.48-.651.322-.279.814-.437.495-.159 1.168-.159t1.168.159.817.437q.325.278.483.65.158.378.158.815 0 .432-.158.81a1.7 1.7 0 0 1-.483.659q-.323.277-.817.436-.496.163-1.168.163m0-.735q.587 0 .985-.11.402-.108.645-.294a1.05 1.05 0 0 0 .348-.425 1.23 1.23 0 0 0 0-1.009 1.05 1.05 0 0 0-.348-.424 1.9 1.9 0 0 0-.645-.294 4 4 0 0 0-.985-.107q-.588 0-.986.107a1.9 1.9 0 0 0-.641.294 1.1 1.1 0 0 0-.351.424 1.27 1.27 0 0 0 0 1.009q.107.242.351.425.243.186.641.293.398.112.986.111" style="fill:#fff;fill-opacity:1"/><path stroke="#fff" d="M23.039 76.955h20.383v10.27H23.039zm0 10.629h20.383v10.27H23.039z" style="stroke:#fff;stroke-opacity:1"/><path stroke="#fff" d="M43.422 98.213h22.692v9.171H43.422z" style="stroke:#fff;stroke-opacity:1" transform="rotate(90 43.422 98.213)"/><path stroke="#fff" d="M43.422 121.265h22.692v9.171H43.422z" style="stroke:#fff;stroke-opacity:1" transform="rotate(90 43.422 121.265)"/><path stroke="#fff" stroke-width="3.872" d="M60.131 111.431h15.082v3.872H60.131z" style="stroke:#fff;stroke-opacity:1" transform="rotate(90 60.131 111.431)"/><path stroke="#fff" d="M70.583 109.995h17.953v6.744H70.583z" style="stroke:#fff;stroke-opacity:1" transform="rotate(90 70.583 109.995)"/><path fill="#fff" d="M13.025 81.087a.13.13 0 0 1-.1-.051l-.277-.33q.315-.405.767-.631.448-.226 1.086-.226.552 0 1.003.21.452.214.77.596.32.384.495.92.176.536.176 1.18t-.183 1.179a2.8 2.8 0 0 1-.513.92 2.3 2.3 0 0 1-.795.596 2.4 2.4 0 0 1-1.021.215q-.549 0-.968-.195a2.4 2.4 0 0 1-.738-.528l.23-.353a.2.2 0 0 1 .057-.068.15.15 0 0 1 .09-.023q.064 0 .157.075.093.08.244.175a1.74 1.74 0 0 0 .931.25q.399 0 .728-.155.33-.151.57-.44.236-.291.368-.707.133-.417.133-.941a3 3 0 0 0-.136-.95 2.2 2.2 0 0 0-.376-.706 1.6 1.6 0 0 0-.563-.437q-.325-.15-.702-.15-.23 0-.412.027a1.6 1.6 0 0 0-.34.096 1.4 1.4 0 0 0-.29.158q-.136.1-.27.235-.06.06-.121.06m-4.605-.636v-.54h2.752v.54h-1.1v3.879q0 .174-.01.353l.913-.87a.2.2 0 0 1 .094-.055.2.2 0 0 1 .161.032.2.2 0 0 1 .05.051l.2.306-1.53 1.465h-.519v-5.16zm49.591 20.617q0 .333.072.587.075.258.208.429a.88.88 0 0 0 .734.349q.46 0 .692-.333.233-.333.233-1.001v-.841h-1.94zm-2.647 2.628v-.683q0-.21.147-.31l1.834-1.477a.4.4 0 0 0 .122-.146.55.55 0 0 0 .04-.239v-.583h-2.143v-.766h5.134v1.607q0 .54-.1.933a1.8 1.8 0 0 1-.283.647q-.187.258-.452.382-.261.123-.587.123a1.3 1.3 0 0 1-.935-.374 1.6 1.6 0 0 1-.32-.44 2.3 2.3 0 0 1-.2-.588.7.7 0 0 1-.219.254zm.486 4.565h-.486v-3.049h.487v1.219h3.5q.159 0 .32.012l-.785-1.013a.3.3 0 0 1-.05-.103.27.27 0 0 1 .029-.179.2.2 0 0 1 .046-.055l.276-.222 1.322 1.695v.575H55.85zm11.408-7.193q0 .333.072.587.076.258.207.429a.88.88 0 0 0 .735.349q.459 0 .691-.333.233-.333.233-1.001v-.841h-1.938zm-2.648 2.628v-.683q0-.21.147-.31l1.835-1.477a.4.4 0 0 0 .121-.146.55.55 0 0 0 .04-.239v-.583H64.61v-.766h5.135v1.607q0 .54-.1.933a1.8 1.8 0 0 1-.284.647q-.186.258-.451.382-.262.123-.588.123a1.3 1.3 0 0 1-.935-.374 1.6 1.6 0 0 1-.319-.44 2.3 2.3 0 0 1-.2-.588.7.7 0 0 1-.22.254zm.606 4.442a.26.26 0 0 1-.061.182.2.2 0 0 1-.158.068h-.387v-3.795h.219q.068 0 .14.031a.4.4 0 0 1 .132.1l1.652 1.822q.207.226.397.413.194.186.387.317.195.131.391.203.201.07.426.071t.395-.079a.8.8 0 0 0 .283-.218.9.9 0 0 0 .164-.322q.058-.186.058-.401 0-.218-.058-.401a1.1 1.1 0 0 0-.16-.326.94.94 0 0 0-.548-.369q-.126-.048-.17-.131a.4.4 0 0 1-.02-.226l.056-.369q.351.055.62.214.273.163.455.405.183.246.276.56.097.313.097.679 0 .361-.097.675a1.6 1.6 0 0 1-.283.543 1.3 1.3 0 0 1-.448.362 1.35 1.35 0 0 1-.602.131q-.286 0-.534-.096a2 2 0 0 1-.465-.258 3.5 3.5 0 0 1-.434-.377q-.21-.21-.426-.448l-1.383-1.501a3 3 0 0 1 .086.635zm11.751-12.193q0 .333.072.588.075.258.207.428a.9.9 0 0 0 .323.262 1 1 0 0 0 .412.088q.459 0 .691-.334.234-.333.233-1v-.842h-1.938zm-2.648 2.628v-.683q0-.21.147-.31l1.835-1.476a.4.4 0 0 0 .121-.147.54.54 0 0 0 .04-.238v-.584h-2.143v-.766h5.135v1.608q0 .54-.1.933a1.8 1.8 0 0 1-.284.647q-.186.258-.451.381-.262.123-.588.123-.272 0-.509-.095a1.3 1.3 0 0 1-.426-.278 1.6 1.6 0 0 1-.319-.44 2.3 2.3 0 0 1-.2-.588.74.74 0 0 1-.22.254zm3.744 1.04q.351.055.62.214.272.16.455.401.183.246.276.56.097.318.097.683 0 .361-.093.667-.093.305-.265.524a1.18 1.18 0 0 1-.957.468q-.243 0-.437-.071a1 1 0 0 1-.334-.199 1.1 1.1 0 0 1-.243-.309 2 2 0 0 1-.165-.409q-.129.555-.444.834a1.12 1.12 0 0 1-.781.281q-.356 0-.638-.15a1.5 1.5 0 0 1-.484-.405 2 2 0 0 1-.304-.604 2.5 2.5 0 0 1-.104-.734q0-.453.1-.774.105-.322.283-.544.18-.222.423-.365.248-.144.534-.243l.114.306a.4.4 0 0 1 .026.23.22.22 0 0 1-.119.167l-.24.127a1.15 1.15 0 0 0-.487.556q-.09.21-.09.532 0 .297.086.52.09.226.23.373a.9.9 0 0 0 .311.226.8.8 0 0 0 .34.076q.21 0 .38-.06a.63.63 0 0 0 .298-.222q.126-.163.197-.449.072-.282.072-.726h.462q.003.365.072.619.067.258.186.417a.7.7 0 0 0 .283.234q.165.076.365.076a.9.9 0 0 0 .387-.08q.165-.075.273-.21a.9.9 0 0 0 .16-.322q.055-.183.055-.397t-.058-.401a1.1 1.1 0 0 0-.16-.325.9.9 0 0 0-.548-.369q-.126-.052-.17-.132a.4.4 0 0 1-.021-.222zm11.263 22.841v-2.267h.695v2.267l1.881 3.422h-.61a.2.2 0 0 1-.146-.051.4.4 0 0 1-.093-.127l-1.175-2.212q-.065-.139-.119-.262a2 2 0 0 1-.093-.242 3 3 0 0 1-.09.242q-.05.123-.11.262l-1.172 2.212a.4.4 0 0 1-.09.123.2.2 0 0 1-.147.055h-.612zm-5.856-1.596a.21.21 0 0 1-.164-.067.25.25 0 0 1-.06-.175v-.429h3.425v.243a.45.45 0 0 1-.119.301l-1.644 1.83q-.204.231-.373.441a3 3 0 0 0-.287.429q-.118.214-.182.433a1.7 1.7 0 0 0-.065.472q0 .25.072.437a.85.85 0 0 0 .197.313.8.8 0 0 0 .29.183q.168.063.362.063.197 0 .362-.063a1 1 0 0 0 .505-.445q.086-.155.122-.341.043-.14.118-.187.072-.044.204-.024l.334.064a2.3 2.3 0 0 1-.194.687q-.147.301-.365.504a1.5 1.5 0 0 1-.505.306 1.7 1.7 0 0 1-.613.107q-.326 0-.61-.107a1.43 1.43 0 0 1-.817-.81 1.8 1.8 0 0 1-.118-.667q0-.318.087-.592a2.5 2.5 0 0 1 .232-.516q.148-.246.34-.48.19-.234.406-.473l1.354-1.532a2.3 2.3 0 0 1-.573.095zM64.498 233.74a.13.13 0 0 1-.1-.052l-.276-.329q.315-.405.767-.631.448-.227 1.086-.227.551 0 1.003.211.451.214.77.595.32.386.495.921.175.536.175 1.179t-.183 1.179a2.8 2.8 0 0 1-.512.921 2.3 2.3 0 0 1-.795.596 2.4 2.4 0 0 1-1.022.214q-.547 0-.967-.194a2.4 2.4 0 0 1-.738-.528l.23-.354a.2.2 0 0 1 .057-.067.15.15 0 0 1 .09-.024q.064 0 .157.076.093.079.243.174a1.7 1.7 0 0 0 .932.25q.398 0 .727-.155.33-.15.57-.44a2.1 2.1 0 0 0 .37-.707q.132-.417.132-.941 0-.531-.136-.949a2.2 2.2 0 0 0-.377-.706 1.6 1.6 0 0 0-.562-.437 1.7 1.7 0 0 0-.702-.151q-.229 0-.413.028a1.6 1.6 0 0 0-.34.095 1.4 1.4 0 0 0-.29.159q-.135.099-.269.234-.06.06-.122.06m-4.604-.635v-.54h2.752v.54h-1.1v3.878q0 .175-.01.354l.913-.87a.2.2 0 0 1 .093-.055.22.22 0 0 1 .161.031.2.2 0 0 1 .05.052l.201.306-1.53 1.465h-.52v-5.161zm-4.812 5.149v-.318q0-.135.028-.222.026-.087.05-.147l2.129-4.752a.6.6 0 0 1 .129-.179.33.33 0 0 1 .218-.071h.46l-2.158 4.692a2 2 0 0 1-.204.342h2.68q.06 0 .108.051a.2.2 0 0 1 .046.123v.481zm9.416-23.724a.13.13 0 0 1-.1-.051l-.276-.33q.315-.405.767-.631.448-.226 1.086-.226.551 0 1.003.21.451.214.77.596.32.384.495.921.175.536.175 1.179 0 .642-.183 1.179a2.8 2.8 0 0 1-.512.921 2.3 2.3 0 0 1-.795.595 2.4 2.4 0 0 1-1.022.215 2.3 2.3 0 0 1-.967-.195 2.4 2.4 0 0 1-.738-.528l.23-.353a.2.2 0 0 1 .057-.068.15.15 0 0 1 .09-.024q.064 0 .157.076.093.08.243.175a1.74 1.74 0 0 0 .932.25q.398 0 .727-.155.33-.151.57-.441.236-.29.37-.706.132-.417.132-.941a3 3 0 0 0-.136-.949 2.2 2.2 0 0 0-.377-.707 1.65 1.65 0 0 0-.562-.437 1.7 1.7 0 0 0-.702-.15q-.229 0-.413.027a1.6 1.6 0 0 0-.34.096 1.4 1.4 0 0 0-.29.158q-.135.1-.269.235-.06.059-.122.059m-4.604-.635v-.54h2.752v.54h-1.1v3.879q0 .174-.01.353l.913-.869a.2.2 0 0 1 .093-.056.3.3 0 0 1 .086 0 .2.2 0 0 1 .126.083l.2.306-1.53 1.465h-.52v-5.161zm-3.01-.016q-.258 0-.466.091a1.1 1.1 0 0 0-.588.64 1.4 1.4 0 0 0-.082.484q0 .278.079.5a1.04 1.04 0 0 0 .57.623q.2.084.44.084a1.07 1.07 0 0 0 .821-.361q.144-.163.222-.382.075-.213.075-.448 0-.275-.071-.5a1.1 1.1 0 0 0-.208-.389 1 1 0 0 0-.337-.254 1.1 1.1 0 0 0-.455-.088m.373 3.033.132-.186.118-.175a1.4 1.4 0 0 1-.877.29q-.312 0-.588-.115a1.3 1.3 0 0 1-.48-.33 1.55 1.55 0 0 1-.33-.532 2 2 0 0 1-.122-.718q0-.393.13-.731.128-.338.361-.587.23-.25.556-.393.322-.144.713-.143.387 0 .702.135.316.138.537.389.22.254.34.611.12.361.12.806 0 .373-.148.794-.15.425-.476.905l-1.305 1.941a.4.4 0 0 1-.34.171h-.566zm-8.94-42.082a.13.13 0 0 1-.1-.051l-.276-.33q.315-.405.766-.631.448-.226 1.086-.226.552 0 1.003.21.452.215.77.596.32.384.495.921.176.536.176 1.179t-.183 1.179a2.8 2.8 0 0 1-.512.921 2.3 2.3 0 0 1-.796.595 2.4 2.4 0 0 1-1.021.215 2.3 2.3 0 0 1-.967-.195 2.4 2.4 0 0 1-.739-.528l.23-.353a.2.2 0 0 1 .057-.068.15.15 0 0 1 .09-.023q.064 0 .157.075.093.08.244.175a1.74 1.74 0 0 0 .932.25q.397 0 .727-.155.33-.151.57-.441.236-.29.369-.706.132-.417.132-.941a3 3 0 0 0-.136-.949 2.2 2.2 0 0 0-.376-.707 1.6 1.6 0 0 0-.563-.436 1.65 1.65 0 0 0-.702-.151q-.23 0-.412.027a1.6 1.6 0 0 0-.34.096 1.3 1.3 0 0 0-.29.159q-.136.099-.27.234-.06.059-.121.059m-4.493-.504a.21.21 0 0 1-.165-.067.25.25 0 0 1-.06-.175v-.429h3.425v.242a.45.45 0 0 1-.119.302l-1.644 1.83q-.204.231-.373.441a3 3 0 0 0-.287.429q-.118.214-.182.432a1.7 1.7 0 0 0-.065.473q0 .25.072.437a.85.85 0 0 0 .197.313.8.8 0 0 0 .29.183q.168.063.362.063.197 0 .362-.063a.96.96 0 0 0 .505-.445q.086-.155.122-.341.043-.14.118-.187.072-.043.205-.024l.333.064a2.3 2.3 0 0 1-.194.687q-.147.302-.365.504a1.5 1.5 0 0 1-.505.306 1.7 1.7 0 0 1-.613.107q-.326 0-.61-.107a1.42 1.42 0 0 1-.817-.81 1.8 1.8 0 0 1-.117-.667q0-.318.086-.592a2.5 2.5 0 0 1 .232-.516q.148-.246.34-.48.19-.234.406-.473l1.354-1.532a2 2 0 0 1-.29.067 1.5 1.5 0 0 1-.283.028zm-4.992 2.172q0-.746.147-1.295.144-.543.394-.901.251-.357.595-.532.34-.174.73-.174.395 0 .736.174.336.175.587.532t.394.901q.144.549.144 1.295t-.144 1.294a2.8 2.8 0 0 1-.394.905q-.25.362-.587.536a1.6 1.6 0 0 1-.735.175q-.39 0-.731-.175a1.6 1.6 0 0 1-.595-.536 2.8 2.8 0 0 1-.394-.905 5 5 0 0 1-.147-1.294m.663 0q0 .651.1 1.091.097.445.266.715.165.27.383.385a.93.93 0 0 0 .91 0q.218-.115.383-.385t.266-.715q.096-.44.096-1.091a5.2 5.2 0 0 0-.096-1.092 2.4 2.4 0 0 0-.266-.711 1.05 1.05 0 0 0-.383-.389 1 1 0 0 0-.455-.115 1 1 0 0 0-.455.115q-.22.12-.383.389-.169.27-.266.711a5 5 0 0 0-.1 1.092m-14.394-20.86a.16.16 0 0 1-.046.111l-.298.306a2.4 2.4 0 0 1-.57-.85q-.204-.496-.204-1.203 0-.611.19-1.111.195-.5.538-.854.348-.354.831-.548a2.8 2.8 0 0 1 1.064-.194q.58 0 1.064.202t.832.568q.347.37.537.881.194.513.194 1.132 0 .607-.176 1.071-.176.465-.476.818l-.32-.254a.2.2 0 0 1-.06-.063.2.2 0 0 1-.022-.1q0-.07.068-.174.072-.103.158-.27a2.3 2.3 0 0 0 .226-1.032q0-.441-.14-.806a1.8 1.8 0 0 0-.398-.632 1.8 1.8 0 0 0-.638-.408 2.3 2.3 0 0 0-.849-.147q-.48 0-.856.151-.375.155-.638.416a1.8 1.8 0 0 0-.394.624q-.135.361-.136.778 0 .254.025.456.029.207.086.377.057.175.143.322.09.151.212.298.053.067.053.135m4.074 5.351h-.286a.5.5 0 0 1-.201-.032 1 1 0 0 1-.133-.055l-4.288-2.358a.5.5 0 0 1-.162-.143.4.4 0 0 1-.064-.243v-.508l4.235 2.39q.09.052.165.107t.143.12v-2.97q0-.068.047-.119a.15.15 0 0 1 .11-.052h.434zm56.359-1.526a.13.13 0 0 1-.1-.052l-.276-.33q.315-.404.767-.631.447-.226 1.085-.226.552 0 1.004.21.451.215.77.596.319.386.495.921.175.535.175 1.179t-.183 1.179a2.8 2.8 0 0 1-.512.921 2.3 2.3 0 0 1-.795.596 2.4 2.4 0 0 1-1.022.214 2.3 2.3 0 0 1-.967-.195 2.4 2.4 0 0 1-.738-.528l.23-.353a.2.2 0 0 1 .057-.067.15.15 0 0 1 .09-.024q.064 0 .157.075.093.08.243.175t.377.171q.225.08.555.079.398 0 .727-.155.33-.15.57-.44a2.1 2.1 0 0 0 .37-.707q.132-.417.132-.941 0-.532-.136-.949a2.2 2.2 0 0 0-.377-.706 1.6 1.6 0 0 0-.562-.437 1.65 1.65 0 0 0-.703-.151q-.228 0-.412.028a1.6 1.6 0 0 0-.34.095 1.3 1.3 0 0 0-.29.159q-.135.099-.269.234-.06.06-.122.06m-4.604-.636v-.54h2.752v.54h-1.1v3.879q0 .175-.01.353l.913-.869a.2.2 0 0 1 .093-.056.3.3 0 0 1 .086 0 .2.2 0 0 1 .125.084l.201.305-1.53 1.465h-.52v-5.161zm-4.475.131a.21.21 0 0 1-.165-.067.25.25 0 0 1-.061-.175v-.429h3.425v.243a.45.45 0 0 1-.118.301l-1.645 1.831q-.204.23-.372.44a3 3 0 0 0-.287.429q-.118.214-.183.433a1.7 1.7 0 0 0-.064.472q0 .25.072.437a.85.85 0 0 0 .197.313.75.75 0 0 0 .29.183q.168.064.362.064.197 0 .361-.064a1 1 0 0 0 .505-.445q.087-.155.123-.341.043-.14.118-.187.072-.044.204-.023l.333.063q-.05.39-.193.687-.147.302-.366.504a1.5 1.5 0 0 1-.505.306 1.7 1.7 0 0 1-.613.107q-.326 0-.609-.107a1.42 1.42 0 0 1-.817-.81 1.8 1.8 0 0 1-.118-.667q0-.318.086-.592a2.5 2.5 0 0 1 .233-.516q.147-.246.34-.48.19-.234.405-.472l1.355-1.533a2.3 2.3 0 0 1-.574.095zm-7.449-12.814a.13.13 0 0 1-.1-.052l-.276-.329q.315-.405.767-.631.447-.227 1.085-.227.552 0 1.004.211.45.214.77.595.319.386.494.921.176.537.176 1.179 0 .643-.183 1.179a2.8 2.8 0 0 1-.512.921 2.3 2.3 0 0 1-.796.596 2.4 2.4 0 0 1-1.02.214q-.55 0-.968-.194a2.4 2.4 0 0 1-.738-.528l.229-.354a.2.2 0 0 1 .057-.067.15.15 0 0 1 .09-.024q.064 0 .158.076.093.08.243.174a1.7 1.7 0 0 0 .932.25q.397 0 .727-.154.33-.151.57-.441a2.1 2.1 0 0 0 .369-.707q.132-.416.132-.941 0-.531-.136-.949a2.2 2.2 0 0 0-.376-.706 1.6 1.6 0 0 0-.562-.437 1.7 1.7 0 0 0-.703-.151q-.23 0-.412.028a1.6 1.6 0 0 0-.34.095 1.4 1.4 0 0 0-.29.159q-.136.099-.27.234-.06.06-.12.06m-4.605-.635v-.54h2.752v.54h-1.1v3.878q0 .175-.01.354l.913-.87a.2.2 0 0 1 .093-.055.22.22 0 0 1 .161.031.2.2 0 0 1 .05.052l.201.306-1.53 1.465h-.52v-5.161zm-1.953 3.477q0-.27-.068-.484a1 1 0 0 0-.201-.357.9.9 0 0 0-.319-.223 1.1 1.1 0 0 0-.423-.075q-.257 0-.455.091a1.04 1.04 0 0 0-.544.608 1.4 1.4 0 0 0 .007.901q.075.219.211.369.137.151.326.23a1 1 0 0 0 .412.084q.237 0 .43-.088a1 1 0 0 0 .333-.234q.14-.15.215-.361.075-.21.076-.461m-1.49-1.75q-.08.114-.148.218a6 6 0 0 0-.129.206q.198-.174.445-.266a1.52 1.52 0 0 1 1.075.016q.258.107.455.314.196.21.315.512.114.306.114.699 0 .373-.125.699t-.351.567a1.66 1.66 0 0 1-1.222.52 1.6 1.6 0 0 1-.67-.135q-.3-.135-.516-.377a1.7 1.7 0 0 1-.33-.579 2.3 2.3 0 0 1-.118-.747q0-.246.043-.468.04-.219.119-.433.075-.21.186-.421.112-.206.25-.425l1.251-2a.35.35 0 0 1 .133-.124.4.4 0 0 1 .197-.043h.587zm52.431-2.757a.13.13 0 0 1-.101-.052l-.276-.329q.316-.405.767-.631.448-.227 1.086-.227.552 0 1.003.211.452.214.77.595.32.385.495.921.175.537.175 1.179 0 .643-.182 1.18a2.8 2.8 0 0 1-.513.921 2.3 2.3 0 0 1-.795.595 2.4 2.4 0 0 1-1.021.214q-.549 0-.968-.194a2.4 2.4 0 0 1-.738-.528l.23-.353a.2.2 0 0 1 .057-.068.14.14 0 0 1 .089-.024q.065 0 .158.076.093.08.244.174.15.096.376.171.226.08.555.08.398 0 .728-.155.329-.151.569-.441.237-.29.369-.707.133-.416.133-.941 0-.531-.136-.948a2.2 2.2 0 0 0-.376-.707 1.6 1.6 0 0 0-.563-.437 1.7 1.7 0 0 0-.702-.151q-.23 0-.412.028a1.6 1.6 0 0 0-.631.254q-.136.1-.269.235-.06.059-.121.059m-4.604-.635v-.54h2.751v.54h-1.1v3.879q0 .174-.01.353l.913-.87a.2.2 0 0 1 .093-.055.3.3 0 0 1 .086 0 .2.2 0 0 1 .076.032.2.2 0 0 1 .05.051l.201.306-1.53 1.465h-.52v-5.161zm-3.018-.04q-.25 0-.448.076a.95.95 0 0 0-.337.218.95.95 0 0 0-.211.337 1.2 1.2 0 0 0-.075.437q0 .294.089.5a.9.9 0 0 0 .577.532q.194.064.405.064t.405-.064a.9.9 0 0 0 .344-.19.9.9 0 0 0 .236-.342q.087-.206.086-.5 0-.238-.071-.437a1 1 0 0 0-.212-.337 1 1 0 0 0-.336-.218 1.3 1.3 0 0 0-.452-.076m0 4.705q.23 0 .405-.076a.8.8 0 0 0 .29-.206.9.9 0 0 0 .176-.306q.057-.175.057-.373 0-.195-.05-.377a.9.9 0 0 0-.161-.326.84.84 0 0 0-.287-.226 1 1 0 0 0-.43-.083 1 1 0 0 0-.426.083.83.83 0 0 0-.452.552q-.05.182-.05.377 0 .199.061.373a.84.84 0 0 0 .466.512q.171.075.401.076m-.734-2.239q-.48-.151-.738-.505-.258-.353-.258-.905a1.7 1.7 0 0 1 .129-.675q.124-.298.354-.508.226-.21.545-.325.319-.112.702-.112.384 0 .702.112a1.6 1.6 0 0 1 .549.325q.229.21.354.508.126.301.126.675 0 .552-.258.905a1.4 1.4 0 0 1-.738.505q.405.166.612.496.205.333.205.794 0 .314-.111.587a1.43 1.43 0 0 1-.803.794 1.7 1.7 0 0 1-.638.115 1.7 1.7 0 0 1-.634-.115 1.4 1.4 0 0 1-.806-.794 1.6 1.6 0 0 1-.111-.587q0-.46.207-.794.205-.33.61-.496m8.919-32.011q0 .334.072.588.075.258.208.429a.89.89 0 0 0 .734.349q.459 0 .692-.334.233-.333.233-1v-.842h-1.939zm-2.648 2.628v-.682q0-.211.147-.31l1.835-1.477a.4.4 0 0 0 .122-.147.55.55 0 0 0 .039-.238v-.584h-2.143v-.766h5.135v1.608q0 .54-.1.933a1.8 1.8 0 0 1-.284.647 1.15 1.15 0 0 1-.451.381q-.261.123-.588.123-.272 0-.508-.095a1.3 1.3 0 0 1-.427-.278 1.6 1.6 0 0 1-.319-.441 2.3 2.3 0 0 1-.2-.587.74.74 0 0 1-.219.254zm.452 2.827q0 .277.068.496.072.222.197.373a.85.85 0 0 0 .304.234.9.9 0 0 0 .395.084.94.94 0 0 0 .451-.1.8.8 0 0 0 .308-.262q.118-.162.172-.377a1.74 1.74 0 0 0 0-.897 1.1 1.1 0 0 0-.172-.381.9.9 0 0 0-.308-.262 1 1 0 0 0-.451-.095 1 1 0 0 0-.395.079.9.9 0 0 0-.304.234 1.2 1.2 0 0 0-.197.373 1.7 1.7 0 0 0-.068.501m4.246 0q0-.254-.068-.449a1 1 0 0 0-.187-.322.8.8 0 0 0-.612-.258q-.176 0-.341.056a.8.8 0 0 0-.294.179.9.9 0 0 0-.204.317q-.075.199-.075.477t.075.472q.08.199.204.322a.8.8 0 0 0 .294.178q.165.056.341.056a.84.84 0 0 0 .612-.262.9.9 0 0 0 .187-.322q.068-.19.068-.444m-2.021.814q-.137.532-.455.817-.32.286-.817.286-.337 0-.609-.143a1.3 1.3 0 0 1-.459-.393 1.9 1.9 0 0 1-.294-.603 2.8 2.8 0 0 1-.1-.778q0-.426.1-.778.105-.353.294-.608.19-.254.459-.393.272-.14.609-.139.498 0 .817.286t.455.818q.15-.449.448-.679.3-.226.716-.226.283 0 .531.123.246.123.43.349.182.227.286.54.105.318.104.707 0 .385-.104.702a1.7 1.7 0 0 1-.286.544 1.3 1.3 0 0 1-.43.35 1.2 1.2 0 0 1-.531.123 1.14 1.14 0 0 1-.716-.231q-.298-.225-.448-.674m6.114 35.468h-.584v-3.227h5.134v.766h-4.55zm.021 4.52a.26.26 0 0 1-.061.182.2.2 0 0 1-.157.068h-.387v-3.796h.218q.069 0 .14.032a.4.4 0 0 1 .133.099l1.651 1.823q.208.226.398.413.193.186.387.317.193.13.391.203.2.07.426.071t.394-.079a.76.76 0 0 0 .283-.219.9.9 0 0 0 .165-.321q.057-.187.057-.401a1.3 1.3 0 0 0-.057-.401 1.1 1.1 0 0 0-.161-.326 1 1 0 0 0-.24-.234.9.9 0 0 0-.308-.135q-.126-.047-.169-.131a.4.4 0 0 1-.021-.226l.057-.369q.351.055.62.214.272.162.455.405.183.246.276.56.096.314.097.678 0 .362-.097.675a1.6 1.6 0 0 1-.283.544 1.3 1.3 0 0 1-.448.362 1.35 1.35 0 0 1-.602.131q-.286 0-.534-.096a2 2 0 0 1-.466-.258 3.6 3.6 0 0 1-.433-.377q-.211-.21-.427-.449l-1.383-1.5a3 3 0 0 1 .086.635zm7.506 5.751q0 .064-.047.111l-.297.306a2.4 2.4 0 0 1-.57-.85q-.204-.495-.204-1.203 0-.611.19-1.111.194-.5.537-.854.348-.353.831-.548a2.9 2.9 0 0 1 1.065-.194q.58 0 1.064.202.483.203.831.568.348.37.538.881.193.513.193 1.132 0 .607-.176 1.072a2.8 2.8 0 0 1-.476.818l-.319-.254a.2.2 0 0 1-.061-.064.2.2 0 0 1-.021-.099q0-.072.068-.175.071-.103.157-.27.087-.166.154-.417.072-.25.072-.615 0-.44-.14-.806a1.8 1.8 0 0 0-.397-.631 1.8 1.8 0 0 0-.638-.409 2.3 2.3 0 0 0-.849-.147q-.48 0-.857.151a1.9 1.9 0 0 0-.637.417 1.8 1.8 0 0 0-.395.623q-.136.361-.136.778 0 .255.025.457.029.206.086.377.058.174.144.321.089.151.211.298.054.067.054.135m2.135 2.497q.086.444.086.818 0 .444-.118.786a1.6 1.6 0 0 1-.326.568 1.3 1.3 0 0 1-.491.345 1.6 1.6 0 0 1-.616.119 1.67 1.67 0 0 1-1.304-.591 1.9 1.9 0 0 1-.359-.648 2.5 2.5 0 0 1-.125-.805q0-.25.046-.481a2.6 2.6 0 0 1 .291-.802q.096-.17.204-.302l.272.219q.093.071.093.186a.4.4 0 0 1-.057.179 6 6 0 0 0-.122.242 2.4 2.4 0 0 0-.125.334 1.7 1.7 0 0 0-.054.46q0 .298.086.536t.244.409q.16.17.383.262.222.091.498.091.24 0 .434-.079a.8.8 0 0 0 .329-.234q.137-.155.212-.389t.075-.548q0-.215-.032-.449a3 3 0 0 0-.104-.472l.118-.445 2.401.457v2.695h-.28a.3.3 0 0 1-.226-.095q-.086-.092-.086-.317v-1.787zm-9.301 25.421q0 .064-.047.111l-.297.306a2.4 2.4 0 0 1-.57-.85q-.204-.495-.204-1.203 0-.611.19-1.111.194-.5.537-.854.348-.353.831-.548a2.9 2.9 0 0 1 1.065-.194q.58 0 1.064.202.483.203.831.568.348.37.537.881.194.513.194 1.132 0 .607-.176 1.072a2.8 2.8 0 0 1-.476.818l-.319-.254a.2.2 0 0 1-.061-.064.2.2 0 0 1-.021-.099q0-.072.068-.175.071-.103.157-.27t.154-.417q.072-.25.072-.615 0-.44-.14-.806a1.8 1.8 0 0 0-.397-.631 1.8 1.8 0 0 0-.638-.409 2.3 2.3 0 0 0-.849-.147q-.481 0-.857.151a1.9 1.9 0 0 0-.638.417 1.8 1.8 0 0 0-.394.623q-.136.361-.136.778 0 .255.025.457.029.206.086.377.057.174.144.321.089.151.211.298.054.067.054.135m.792 3.958h2.117a3 3 0 0 1 .43.032l-2.547-2.073zm0 1.481h-.366a.13.13 0 0 1-.097-.04q-.039-.036-.039-.115v-.707h-1.351v-.619h1.351v-2.525q0-.08.039-.139a.2.2 0 0 1 .104-.071l.326-.072 3.315 2.767v.659h-3.282zm-18.87-15.701q0 .354.108.631.108.279.301.469.193.193.462.294.269.103.591.103h3.121v.766h-3.121q-.444 0-.824-.159a1.9 1.9 0 0 1-.659-.448 2.1 2.1 0 0 1-.434-.711 2.7 2.7 0 0 1-.157-.945q0-.524.157-.945.158-.42.434-.714.28-.294.659-.453.38-.155.824-.155h3.121v.766h-3.117q-.323 0-.591.1-.27.102-.463.293a1.4 1.4 0 0 0-.304.473q-.108.282-.108.635m.054 7.312a.26.26 0 0 1-.061.182.2.2 0 0 1-.157.068h-.387v-3.796h.218q.069 0 .14.032a.4.4 0 0 1 .132.099l1.652 1.823q.208.226.398.413.194.186.387.317.194.131.39.203.2.07.427.071t.394-.079a.76.76 0 0 0 .283-.219.9.9 0 0 0 .165-.321q.057-.187.057-.401a1.3 1.3 0 0 0-.057-.401 1.1 1.1 0 0 0-.161-.326.94.94 0 0 0-.549-.369q-.124-.048-.168-.131a.4.4 0 0 1-.021-.226l.057-.369q.351.055.62.214.272.162.455.405.183.246.276.56.096.313.096.679 0 .36-.096.674-.097.315-.283.544a1.3 1.3 0 0 1-.448.362 1.35 1.35 0 0 1-.602.131q-.286 0-.534-.096a2 2 0 0 1-.466-.258 3.6 3.6 0 0 1-.433-.377q-.211-.21-.427-.448l-1.383-1.501a3 3 0 0 1 .086.635zm14.269 9.848a.13.13 0 0 1-.1-.051l-.276-.33q.315-.405.766-.631.449-.226 1.086-.226.552 0 1.003.21.452.215.771.596.318.385.494.921t.176 1.179-.183 1.179a2.8 2.8 0 0 1-.512.921 2.3 2.3 0 0 1-.796.596 2.4 2.4 0 0 1-1.021.214q-.548 0-.967-.195a2.4 2.4 0 0 1-.738-.528l.229-.353a.2.2 0 0 1 .057-.067.15.15 0 0 1 .09-.024q.064 0 .157.075.094.08.244.175t.376.171q.226.078.556.079.397 0 .727-.155.33-.15.57-.441.236-.29.369-.706.132-.417.132-.941 0-.532-.136-.949a2.2 2.2 0 0 0-.376-.707 1.6 1.6 0 0 0-.563-.436 1.64 1.64 0 0 0-.702-.151q-.23 0-.412.028a1.6 1.6 0 0 0-.34.095 1.4 1.4 0 0 0-.291.159q-.136.099-.268.234-.061.06-.122.059m-3.035-.674q-.25 0-.448.075a1 1 0 0 0-.336.218.9.9 0 0 0-.212.338q-.075.198-.075.437 0 .293.09.5a.89.89 0 0 0 .576.532 1.3 1.3 0 0 0 .405.063 1.3 1.3 0 0 0 .405-.063.9.9 0 0 0 .344-.191.95.95 0 0 0 .237-.341 1.3 1.3 0 0 0 .086-.5q0-.239-.072-.437a1 1 0 0 0-.211-.338 1 1 0 0 0-.337-.218 1.3 1.3 0 0 0-.452-.075m0 4.704q.23 0 .405-.075a.83.83 0 0 0 .466-.513 1.2 1.2 0 0 0 .057-.373q0-.194-.05-.377a.9.9 0 0 0-.161-.325.85.85 0 0 0-.287-.227 1 1 0 0 0-.43-.083 1 1 0 0 0-.426.083.83.83 0 0 0-.452.552 1.4 1.4 0 0 0-.05.377q0 .2.061.373a.83.83 0 0 0 .466.513q.172.075.401.075m-.734-2.239a1.4 1.4 0 0 1-.738-.504q-.258-.353-.258-.905a1.7 1.7 0 0 1 .129-.675q.125-.298.354-.508.226-.211.545-.326.32-.111.702-.111.384 0 .703.111.318.115.548.326.23.21.355.508.125.301.125.675 0 .552-.258.905a1.4 1.4 0 0 1-.738.504q.405.167.613.496.204.334.204.794 0 .314-.111.588a1.4 1.4 0 0 1-.316.476 1.5 1.5 0 0 1-.487.318 1.7 1.7 0 0 1-.638.115q-.347 0-.634-.115a1.4 1.4 0 0 1-.806-.794 1.6 1.6 0 0 1-.111-.588q0-.46.208-.794.204-.329.609-.496m-9.483 8.07a.13.13 0 0 1-.101-.051l-.276-.33q.316-.405.767-.631.449-.226 1.086-.226.552 0 1.003.21.452.215.77.596.32.384.495.921.175.536.175 1.179 0 .644-.182 1.179a2.8 2.8 0 0 1-.513.921 2.3 2.3 0 0 1-.795.595 2.4 2.4 0 0 1-1.021.215q-.549 0-.968-.195a2.4 2.4 0 0 1-.738-.528l.229-.353a.2.2 0 0 1 .058-.068.15.15 0 0 1 .089-.023q.065 0 .158.075.093.08.244.175a1.7 1.7 0 0 0 .931.25q.398 0 .728-.155.329-.15.569-.441.237-.29.369-.706.133-.417.133-.941 0-.532-.136-.949a2.2 2.2 0 0 0-.376-.707 1.6 1.6 0 0 0-.563-.436 1.64 1.64 0 0 0-.702-.151q-.23 0-.412.028a1.6 1.6 0 0 0-.341.095 1.3 1.3 0 0 0-.29.159q-.136.099-.269.234-.06.06-.121.059m-4.604-.635v-.54h2.751v.54h-1.1v3.879q0 .174-.01.353l.913-.869a.2.2 0 0 1 .093-.056.3.3 0 0 1 .086 0 .2.2 0 0 1 .076.032.2.2 0 0 1 .05.052l.2.305-1.529 1.465h-.52v-5.161zm-4.587 0v-.54h2.751v.54h-1.1v3.879q0 .174-.01.353l.913-.869a.2.2 0 0 1 .094-.056.3.3 0 0 1 .086 0 .2.2 0 0 1 .125.084l.2.305-1.53 1.465h-.519v-5.161zm34.751 12.006q0 .064-.047.112l-.297.305a2.4 2.4 0 0 1-.57-.849q-.204-.496-.204-1.203 0-.611.19-1.112a2.5 2.5 0 0 1 .537-.853q.348-.354.831-.548.484-.195 1.065-.195.58 0 1.064.203.483.203.831.567.348.37.538.882.193.511.193 1.131 0 .607-.176 1.072-.175.465-.476.818l-.319-.254a.2.2 0 0 1-.061-.064.2.2 0 0 1-.021-.099q0-.072.068-.175.071-.102.157-.27a2.26 2.26 0 0 0 .226-1.032q0-.44-.14-.806a1.8 1.8 0 0 0-.397-.631 1.8 1.8 0 0 0-.638-.409 2.3 2.3 0 0 0-.849-.147q-.48 0-.857.151a1.9 1.9 0 0 0-.638.417 1.8 1.8 0 0 0-.394.623 2.2 2.2 0 0 0-.136.778q0 .255.025.457.029.207.086.377.058.175.144.322.089.15.211.297.054.067.054.135m-.574 5.102h-.487v-3.049h.487v1.218h3.501q.157 0 .319.012l-.785-1.012a.3.3 0 0 1-.05-.103.3.3 0 0 1 0-.096.3.3 0 0 1 .029-.083.2.2 0 0 1 .046-.055l.276-.223 1.322 1.695v.576h-4.658zm3.257 1.556q.352.057.62.215.273.159.455.401.183.245.276.56.097.317.097.682 0 .362-.093.667a1.6 1.6 0 0 1-.265.524 1.18 1.18 0 0 1-.957.469q-.243 0-.437-.072a1 1 0 0 1-.333-.198 1.1 1.1 0 0 1-.244-.31 2 2 0 0 1-.165-.409q-.129.556-.444.834a1.12 1.12 0 0 1-.781.282 1.3 1.3 0 0 1-.638-.151 1.5 1.5 0 0 1-.484-.405 1.9 1.9 0 0 1-.304-.603 2.5 2.5 0 0 1-.104-.735q0-.452.1-.774.104-.321.283-.544.18-.222.423-.365a3 3 0 0 1 .534-.242l.115.305q.046.12.025.231a.23.23 0 0 1-.119.166q-.1.052-.24.128a1.16 1.16 0 0 0-.487.555q-.09.211-.09.532 0 .298.086.52.09.227.23.374.14.15.311.226.173.075.341.075.207 0 .38-.059a.64.64 0 0 0 .297-.223q.125-.162.197-.448.072-.282.072-.727h.462q.003.365.072.62.067.258.186.416a.7.7 0 0 0 .283.235q.165.075.366.075a.9.9 0 0 0 .387-.079.75.75 0 0 0 .272-.211.9.9 0 0 0 .161-.321q.054-.183.054-.397t-.058-.401a1.1 1.1 0 0 0-.161-.326 1 1 0 0 0-.24-.234.9.9 0 0 0-.308-.135q-.126-.051-.168-.131-.04-.075-.022-.222zm-33.081 11.399q0 .064-.047.112l-.297.305a2.4 2.4 0 0 1-.57-.849q-.204-.496-.204-1.203 0-.611.19-1.112.194-.5.537-.853.348-.354.831-.548.484-.195 1.065-.195.58 0 1.064.203.483.203.831.567.348.37.537.882.194.511.194 1.131 0 .608-.176 1.072a2.8 2.8 0 0 1-.476.818l-.319-.254a.2.2 0 0 1-.061-.064.2.2 0 0 1-.022-.099q0-.071.069-.175.071-.102.157-.27a2.26 2.26 0 0 0 .226-1.032q0-.44-.14-.806a1.8 1.8 0 0 0-.398-.631 1.8 1.8 0 0 0-.637-.409 2.3 2.3 0 0 0-.849-.147q-.48 0-.857.151-.375.155-.638.417a1.8 1.8 0 0 0-.394.623q-.135.362-.136.778 0 .255.025.457.03.207.086.377.057.175.144.322.09.15.21.298a.2.2 0 0 1 .055.134m-.574 5.102h-.487v-3.049h.487v1.219h3.501q.157 0 .319.011l-.785-1.012a.3.3 0 0 1-.05-.103.3.3 0 0 1 0-.095.3.3 0 0 1 .029-.084.2.2 0 0 1 .046-.055l.276-.223 1.322 1.695v.576h-4.658zm1.366 3.939h2.117a3 3 0 0 1 .43.031l-2.547-2.072zm0 1.48h-.366a.13.13 0 0 1-.097-.039q-.04-.036-.04-.116v-.706h-1.35v-.619h1.35v-2.525q0-.08.04-.139a.2.2 0 0 1 .104-.072l.326-.071 3.315 2.767v.659h-3.283zm20.147-12.988v-2.267h.695v2.267l1.881 3.422h-.609a.2.2 0 0 1-.147-.051.4.4 0 0 1-.093-.127l-1.176-2.212q-.064-.139-.118-.262a2 2 0 0 1-.093-.242 3 3 0 0 1-.09.242 8 8 0 0 1-.111.262l-1.171 2.212a.4.4 0 0 1-.09.123.2.2 0 0 1-.147.055h-.613zm-5.966-1.727v-.54h2.751v.54h-1.1v3.879q0 .174-.01.353l.913-.869a.2.2 0 0 1 .093-.056.3.3 0 0 1 .086 0 .2.2 0 0 1 .076.032.2.2 0 0 1 .05.052l.201.305-1.53 1.465h-.52v-5.161zm-23.18 4.194q0 .064-.046.112l-.298.305a2.4 2.4 0 0 1-.57-.849q-.203-.496-.204-1.203 0-.611.19-1.112.194-.5.538-.853.346-.354.831-.548.483-.195 1.064-.195.58 0 1.064.203t.832.567q.346.37.537.882.195.511.194 1.131 0 .608-.176 1.072t-.477.818l-.319-.254a.2.2 0 0 1-.06-.064.2.2 0 0 1-.022-.099q0-.071.068-.175.071-.102.158-.27.086-.167.154-.416.072-.25.072-.616 0-.44-.14-.806a1.8 1.8 0 0 0-.398-.631 1.8 1.8 0 0 0-.638-.409 2.3 2.3 0 0 0-.849-.147q-.48 0-.856.151-.377.155-.638.417a1.8 1.8 0 0 0-.394.623q-.135.362-.136.778 0 .255.025.457.029.207.086.377.057.175.143.322.09.15.212.298a.2.2 0 0 1 .053.134m-.573 5.102h-.487v-3.049h.487v1.219h3.5q.158 0 .32.011l-.785-1.012a.3.3 0 0 1-.05-.103.3.3 0 0 1 0-.095.3.3 0 0 1 .028-.084.2.2 0 0 1 .047-.055l.276-.223 1.322 1.695v.576h-4.658zm2.708 2.478q.087.444.087.817 0 .445-.118.786a1.6 1.6 0 0 1-.326.568 1.3 1.3 0 0 1-.491.346 1.6 1.6 0 0 1-.617.119 1.68 1.68 0 0 1-1.304-.592 1.9 1.9 0 0 1-.358-.647 2.5 2.5 0 0 1-.126-.806q0-.25.047-.48a2.6 2.6 0 0 1 .29-.802 2 2 0 0 1 .204-.302l.273.218q.093.072.093.187a.4.4 0 0 1-.057.179 5 5 0 0 0-.122.242 2.4 2.4 0 0 0-.126.333 1.8 1.8 0 0 0-.053.461q0 .297.086.536.085.238.243.409.161.17.384.262.222.091.498.091.24 0 .433-.079a.8.8 0 0 0 .33-.235q.136-.155.211-.389.075-.233.076-.548a3.3 3.3 0 0 0-.137-.921l.119-.444 2.4.456v2.696h-.28a.3.3 0 0 1-.225-.095q-.086-.092-.086-.318v-1.786zm20.635-90.437a.16.16 0 0 1-.047.111l-.297.306a2.4 2.4 0 0 1-.57-.85q-.204-.496-.204-1.203 0-.611.19-1.111.194-.5.537-.854.348-.353.832-.548a2.8 2.8 0 0 1 1.064-.194q.58 0 1.064.202t.831.568q.348.37.538.881.193.513.193 1.132 0 .607-.175 1.072a2.7 2.7 0 0 1-.477.817l-.319-.254a.2.2 0 0 1-.061-.063.2.2 0 0 1-.021-.099q0-.072.068-.175.071-.103.158-.27a2.2 2.2 0 0 0 .225-1.032 2.2 2.2 0 0 0-.139-.806 1.8 1.8 0 0 0-.398-.631 1.8 1.8 0 0 0-.638-.409 2.3 2.3 0 0 0-.849-.147q-.48 0-.856.151a1.9 1.9 0 0 0-.638.416 1.8 1.8 0 0 0-.394.624q-.137.361-.137.778 0 .254.026.456.028.207.086.378.057.174.143.321.09.151.211.298.054.067.054.135m-.573 5.101h-.488v-3.049h.488v1.219h3.5q.158 0 .319.012l-.784-1.013a.3.3 0 0 1-.051-.103.27.27 0 0 1 .029-.178.2.2 0 0 1 .047-.056l.276-.222 1.322 1.695v.576h-4.658zm2.078 5.408a3.7 3.7 0 0 1-1.168-.163 2.3 2.3 0 0 1-.814-.437 1.74 1.74 0 0 1-.48-.659 2.1 2.1 0 0 1-.157-.81q0-.437.157-.813.158-.374.48-.651.323-.279.814-.437a3.8 3.8 0 0 1 1.168-.159q.673 0 1.168.159t.817.437q.325.277.484.651.157.376.157.813 0 .433-.157.81a1.7 1.7 0 0 1-.484.659 2.3 2.3 0 0 1-.817.437q-.495.163-1.168.163m0-.735q.588 0 .985-.111.402-.107.645-.294.244-.182.348-.424a1.25 1.25 0 0 0 0-1.009 1.06 1.06 0 0 0-.348-.425 1.9 1.9 0 0 0-.645-.293 3.8 3.8 0 0 0-.985-.107q-.588 0-.985.107a2 2 0 0 0-.642.293 1.1 1.1 0 0 0-.351.425 1.27 1.27 0 0 0 0 1.009q.108.242.351.424.244.188.642.294.397.111.985.111m-10.287-50.078q-.577 0-1.05-.203a2.3 2.3 0 0 1-.81-.571 2.6 2.6 0 0 1-.523-.89 3.4 3.4 0 0 1-.182-1.143v-2.124h5.134v2.124q0 .627-.186 1.143a2.5 2.5 0 0 1-.523.89 2.3 2.3 0 0 1-.81.571 2.6 2.6 0 0 1-1.05.203m0-.79q.472 0 .846-.143.372-.142.63-.405.258-.262.394-.635.137-.374.137-.834v-1.354h-4.01v1.354q0 .46.136.834t.391.635q.258.263.63.405.374.143.846.143m-1.96 5.568a.26.26 0 0 1-.061.182.2.2 0 0 1-.157.068h-.387v-3.796h.218q.069 0 .14.032a.4.4 0 0 1 .132.099l1.652 1.823q.208.226.398.413.194.186.387.317.194.13.39.203.2.07.427.071t.394-.079a.76.76 0 0 0 .283-.219.9.9 0 0 0 .165-.321q.057-.187.057-.401a1.3 1.3 0 0 0-.057-.401 1.1 1.1 0 0 0-.161-.326.94.94 0 0 0-.549-.369q-.124-.047-.168-.131a.4.4 0 0 1-.021-.226l.057-.369q.351.055.62.214.272.162.455.405.183.246.276.56.096.313.096.679 0 .36-.096.674-.097.315-.283.544a1.3 1.3 0 0 1-.448.362 1.35 1.35 0 0 1-.602.131q-.286 0-.534-.096a2 2 0 0 1-.466-.258 3.6 3.6 0 0 1-.433-.377q-.211-.21-.427-.448l-1.383-1.501a3 3 0 0 1 .086.635zM62.998 225.535h-.584v-3.227h5.135v.766h-4.55zm1.268 3.499h2.118a3 3 0 0 1 .43.032l-2.547-2.072zm0 1.481h-.365a.13.13 0 0 1-.097-.04q-.04-.035-.04-.115v-.706h-1.35v-.62h1.35v-2.525q0-.08.04-.139a.2.2 0 0 1 .104-.071l.326-.072 3.315 2.768v.659h-3.283zm57.509 42.825a2.3 2.3 0 0 1-.193.687 1.6 1.6 0 0 1-.362.504 1.5 1.5 0 0 1-.505.306 1.8 1.8 0 0 1-.616.107q-.327 0-.602-.104a1.34 1.34 0 0 1-.785-.754 1.6 1.6 0 0 1-.111-.599q0-.27.064-.485.062-.21.179-.369.115-.159.28-.27t.369-.182q-.501-.144-.752-.493-.255-.345-.255-.865 0-.393.136-.707.133-.314.366-.536a1.7 1.7 0 0 1 .544-.337q.309-.115.663-.115.409 0 .699.111.29.115.491.313.2.2.329.469.129.274.219.591l-.276.127a.3.3 0 0 1-.208.028.21.21 0 0 1-.15-.131l-.115-.266a1.3 1.3 0 0 0-.193-.297 1.1 1.1 0 0 0-.308-.243 1.04 1.04 0 0 0-.481-.099 1.1 1.1 0 0 0-.469.095 1.05 1.05 0 0 0-.541.6 1.1 1.1 0 0 0-.068.377q0 .23.054.421a.7.7 0 0 0 .2.329q.147.14.405.219.255.08.656.079v.512q-.33.004-.559.08-.233.075-.376.206a.75.75 0 0 0-.212.314 1.2 1.2 0 0 0-.068.405q0 .246.072.428a.8.8 0 0 0 .19.302.8.8 0 0 0 .29.179q.165.059.358.059.194 0 .362-.063a.96.96 0 0 0 .505-.445q.087-.155.122-.341.047-.14.119-.187.068-.043.2-.024zm-4.586 0a2.3 2.3 0 0 1-.194.687 1.6 1.6 0 0 1-.362.504 1.5 1.5 0 0 1-.505.306 1.8 1.8 0 0 1-.616.107q-.327 0-.602-.104a1.34 1.34 0 0 1-.785-.754 1.6 1.6 0 0 1-.111-.599q0-.27.064-.485a1.15 1.15 0 0 1 .459-.639q.165-.111.369-.182-.501-.144-.752-.493-.255-.345-.255-.865 0-.393.136-.707.133-.314.366-.536.233-.218.545-.337.308-.115.662-.115.41 0 .699.111.29.115.491.313.201.2.33.469.129.274.218.591l-.276.127a.3.3 0 0 1-.208.028.21.21 0 0 1-.15-.131l-.115-.266a1.3 1.3 0 0 0-.193-.297 1 1 0 0 0-.308-.243 1 1 0 0 0-.48-.099q-.27 0-.47.095a1.05 1.05 0 0 0-.541.6 1.1 1.1 0 0 0-.068.377q0 .23.054.421a.7.7 0 0 0 .2.329q.147.14.405.219.255.08.656.079v.512q-.33.004-.559.08-.233.075-.376.206a.75.75 0 0 0-.212.314 1.2 1.2 0 0 0-.068.405q0 .246.072.428a.8.8 0 0 0 .19.302.8.8 0 0 0 .29.179q.166.059.358.059.194 0 .362-.063a1 1 0 0 0 .294-.179q.125-.111.212-.266.086-.155.121-.341.047-.14.119-.187.068-.043.2-.024zm-7.995 1.54v-.317q0-.135.029-.223.025-.087.05-.147l2.128-4.752a.5.5 0 0 1 .129-.178.32.32 0 0 1 .219-.072h.459l-2.157 4.693a2 2 0 0 1-.097.182 2 2 0 0 1-.108.159h2.68a.14.14 0 0 1 .108.052.2.2 0 0 1 .046.123v.48zm-2.792-5.189q-.25 0-.447.076a1 1 0 0 0-.337.218.95.95 0 0 0-.212.338q-.075.199-.075.436 0 .294.09.501a.89.89 0 0 0 .577.532q.194.063.404.063a1.3 1.3 0 0 0 .405-.063.95.95 0 0 0 .344-.191.95.95 0 0 0 .237-.341q.086-.207.086-.501a1.3 1.3 0 0 0-.072-.436 1 1 0 0 0-.211-.338 1 1 0 0 0-.337-.218 1.3 1.3 0 0 0-.452-.076m0 4.705q.23 0 .405-.076a.8.8 0 0 0 .291-.206.9.9 0 0 0 .175-.306q.057-.174.057-.373 0-.195-.05-.377a.9.9 0 0 0-.161-.326.84.84 0 0 0-.287-.226 1 1 0 0 0-.43-.083 1 1 0 0 0-.426.083.8.8 0 0 0-.29.226.9.9 0 0 0-.161.326 1.4 1.4 0 0 0-.051.377q0 .199.061.373a.85.85 0 0 0 .176.306.8.8 0 0 0 .29.206 1 1 0 0 0 .401.076m-.734-2.239a1.4 1.4 0 0 1-.738-.504q-.258-.354-.258-.906 0-.372.129-.675.125-.297.355-.508.225-.21.544-.325.32-.111.702-.111.384 0 .703.111.318.115.548.325t.355.509q.125.302.125.674 0 .552-.258.906a1.4 1.4 0 0 1-.738.504q.405.166.613.496.204.333.204.794 0 .313-.111.588a1.4 1.4 0 0 1-.803.794 1.7 1.7 0 0 1-.638.115q-.347 0-.634-.115a1.4 1.4 0 0 1-.806-.794 1.6 1.6 0 0 1-.111-.588q0-.46.208-.794.204-.33.609-.496m-3.852-2.466q-.252 0-.448.076a1 1 0 0 0-.337.218.95.95 0 0 0-.212.338q-.075.199-.075.436 0 .294.09.501a.89.89 0 0 0 .577.532 1.3 1.3 0 0 0 .405.063q.211 0 .404-.063a.95.95 0 0 0 .344-.191.95.95 0 0 0 .237-.341q.086-.207.086-.501a1.3 1.3 0 0 0-.072-.436q-.075-.195-.211-.338a1 1 0 0 0-.337-.218 1.3 1.3 0 0 0-.451-.076m0 4.705q.228 0 .404-.076a.8.8 0 0 0 .291-.206.9.9 0 0 0 .175-.306q.058-.174.058-.373 0-.195-.051-.377a.9.9 0 0 0-.161-.326.84.84 0 0 0-.286-.226 1 1 0 0 0-.43-.083 1 1 0 0 0-.427.083.8.8 0 0 0-.29.226.9.9 0 0 0-.161.326q-.05.183-.05.377 0 .199.06.373a.85.85 0 0 0 .176.306.8.8 0 0 0 .29.206 1 1 0 0 0 .402.076m-.735-2.239a1.4 1.4 0 0 1-.738-.504q-.258-.354-.258-.906 0-.372.129-.675.126-.297.355-.508.225-.21.544-.325.32-.111.703-.111t.702.111q.318.115.548.325t.355.508q.125.303.125.675 0 .552-.258.906a1.4 1.4 0 0 1-.738.504q.405.166.613.496.204.333.204.794 0 .313-.111.588a1.4 1.4 0 0 1-.803.794 1.7 1.7 0 0 1-.637.115q-.348 0-.635-.115a1.4 1.4 0 0 1-.806-.794 1.6 1.6 0 0 1-.111-.588q0-.46.208-.794.204-.33.609-.496m-5.647 2.723v-.317q0-.135.028-.223.026-.087.05-.147l2.129-4.752a.5.5 0 0 1 .129-.178.32.32 0 0 1 .218-.072h.459l-2.157 4.693a2 2 0 0 1-.204.341h2.68a.14.14 0 0 1 .107.052.2.2 0 0 1 .047.123v.48zm-4.361-5.149v-.54h2.751v.54h-1.1v3.879q0 .174-.01.353l.913-.869a.2.2 0 0 1 .093-.056.3.3 0 0 1 .086 0 .2.2 0 0 1 .126.083l.2.306-1.53 1.465h-.52v-5.161zm-4.323 1.572.807 2.315a5 5 0 0 1 .15.532q.075-.322.155-.536l.806-2.311zm-1.447-2.112h.538q.093 0 .15.052a.3.3 0 0 1 .086.131l.48 1.373h2.304l.48-1.373a.3.3 0 0 1 .083-.127.22.22 0 0 1 .15-.056h.538l-2.053 5.689h-.703zm-3.506-.655v-.476h2.824v.476zm-3.246 2.922v-2.267h.695v2.267l1.881 3.422h-.609a.2.2 0 0 1-.147-.051.4.4 0 0 1-.093-.127l-1.175-2.212q-.065-.139-.118-.262a2 2 0 0 1-.094-.242 3 3 0 0 1-.09.242q-.05.123-.11.262l-1.172 2.212a.4.4 0 0 1-.09.123.2.2 0 0 1-.146.055h-.613zm-5.966-1.727v-.54h2.752v.54h-1.1v3.879q0 .174-.01.353l.913-.869a.2.2 0 0 1 .093-.056.3.3 0 0 1 .086 0 .2.2 0 0 1 .125.083l.201.306-1.53 1.465h-.52v-5.161zm-4.881 2.303q0-.746.147-1.295.144-.544.394-.901.252-.357.595-.532.34-.174.731-.174.394 0 .735.174.336.175.587.532.252.358.394.901.144.548.144 1.295t-.144 1.294a2.8 2.8 0 0 1-.394.905q-.25.362-.587.536a1.6 1.6 0 0 1-.735.175q-.39 0-.73-.175a1.6 1.6 0 0 1-.596-.536 2.8 2.8 0 0 1-.394-.905 5 5 0 0 1-.147-1.294m.663 0q0 .651.1 1.091.098.445.266.715.165.27.383.385a.93.93 0 0 0 .91 0q.219-.115.384-.385t.265-.715q.096-.44.097-1.091a5.2 5.2 0 0 0-.097-1.092 2.4 2.4 0 0 0-.265-.711 1.05 1.05 0 0 0-.384-.389.96.96 0 0 0-.91 0q-.218.12-.383.389-.168.27-.265.711a5 5 0 0 0-.1 1.092m-2.606.698a3.2 3.2 0 0 1-.738.096q-.402 0-.71-.131a1.4 1.4 0 0 1-.512-.362 1.5 1.5 0 0 1-.312-.543 2.1 2.1 0 0 1-.107-.683q0-.453.143-.818.14-.366.39-.627.248-.259.585-.397.337-.14.727-.139.225 0 .434.051a2.1 2.1 0 0 1 .723.322q.155.107.273.226l-.198.302q-.064.103-.168.103a.3.3 0 0 1-.161-.063 4 4 0 0 0-.219-.135 1.3 1.3 0 0 0-.717-.199q-.268 0-.483.095a1.1 1.1 0 0 0-.37.27 1.3 1.3 0 0 0-.236.425 1.7 1.7 0 0 0-.082.552q0 .265.072.48a.94.94 0 0 0 .562.6q.212.083.495.083a2.4 2.4 0 0 0 .831-.151l.401.131-.412 2.66H63.54v-.309q0-.151.086-.251.082-.095.287-.095h1.612zm-3.738-.861h-1.77v-.6h1.77zm-6.178-2.009a.21.21 0 0 1-.164-.067.25.25 0 0 1-.061-.175v-.429h3.425v.242a.45.45 0 0 1-.118.302l-1.645 1.83q-.204.231-.373.441a3 3 0 0 0-.286.429q-.118.214-.183.432a1.7 1.7 0 0 0-.064.473q0 .25.071.436a.84.84 0 0 0 .197.314.8.8 0 0 0 .29.183q.169.063.362.063.198 0 .362-.063a.96.96 0 0 0 .505-.445q.087-.155.122-.341.043-.14.119-.187.07-.043.204-.024l.333.064a2.3 2.3 0 0 1-.193.687q-.147.302-.366.504a1.5 1.5 0 0 1-.505.306 1.7 1.7 0 0 1-.613.107q-.325 0-.609-.107a1.4 1.4 0 0 1-.817-.81 1.8 1.8 0 0 1-.118-.667q0-.318.086-.592a2.5 2.5 0 0 1 .233-.516q.147-.246.34-.48.19-.234.405-.473l1.355-1.532a2 2 0 0 1-.29.067 1.5 1.5 0 0 1-.284.028zm-4.586 0a.21.21 0 0 1-.165-.067.25.25 0 0 1-.061-.175v-.429h3.425v.242a.45.45 0 0 1-.118.302l-1.645 1.83q-.204.231-.372.441a3 3 0 0 0-.287.429q-.119.214-.183.432a1.7 1.7 0 0 0-.064.473q0 .25.071.436a.85.85 0 0 0 .198.314.8.8 0 0 0 .29.183q.168.063.362.063.197 0 .361-.063a.96.96 0 0 0 .506-.445q.086-.155.121-.341.044-.14.119-.187.071-.043.204-.024l.333.064a2.2 2.2 0 0 1-.193.687 1.7 1.7 0 0 1-.366.504 1.5 1.5 0 0 1-.505.306 1.7 1.7 0 0 1-.613.107q-.325 0-.609-.107a1.4 1.4 0 0 1-.817-.81 1.8 1.8 0 0 1-.118-.667q0-.318.086-.592.086-.27.233-.516t.34-.48q.19-.234.405-.473l1.355-1.532a2 2 0 0 1-.29.067 1.5 1.5 0 0 1-.284.028zm-4.992 2.172q0-.746.147-1.295.143-.544.394-.901.25-.357.595-.532.34-.174.73-.174.394 0 .735.174.336.175.588.532.25.358.394.901.143.548.143 1.295t-.143 1.294a2.8 2.8 0 0 1-.394.905q-.252.362-.588.536a1.6 1.6 0 0 1-.734.175q-.391 0-.731-.175a1.6 1.6 0 0 1-.595-.536 2.8 2.8 0 0 1-.394-.905 5 5 0 0 1-.147-1.294m.663 0q0 .651.1 1.091.097.445.265.715.165.27.383.385a.93.93 0 0 0 .91 0q.219-.115.384-.385t.265-.715q.097-.44.097-1.091a5.2 5.2 0 0 0-.097-1.092 2.4 2.4 0 0 0-.265-.711 1.05 1.05 0 0 0-.383-.389.96.96 0 0 0-.91 0q-.219.12-.384.389-.168.27-.265.711a5 5 0 0 0-.1 1.092m-4.845-2.172a.21.21 0 0 1-.165-.067.25.25 0 0 1-.061-.175v-.429h3.425v.242a.45.45 0 0 1-.118.302l-1.645 1.83q-.204.231-.372.441a3 3 0 0 0-.287.429q-.119.214-.182.432a1.7 1.7 0 0 0-.065.473q0 .25.072.436a.84.84 0 0 0 .197.314.8.8 0 0 0 .29.183q.168.063.362.063.197 0 .362-.063a.96.96 0 0 0 .505-.445q.086-.155.122-.341.042-.14.118-.187.072-.043.204-.024l.334.064a2.3 2.3 0 0 1-.194.687q-.147.302-.365.504a1.5 1.5 0 0 1-.506.306 1.7 1.7 0 0 1-.612.107q-.326 0-.61-.107a1.4 1.4 0 0 1-.817-.81 1.8 1.8 0 0 1-.118-.667q0-.318.086-.592a2.5 2.5 0 0 1 .233-.516q.148-.246.34-.48.19-.234.406-.473l1.354-1.532a2 2 0 0 1-.29.067 1.5 1.5 0 0 1-.283.028zm-4.698-.131v-.54h2.752v.54h-1.1v3.879q0 .174-.011.353l.913-.869a.2.2 0 0 1 .094-.056.3.3 0 0 1 .086 0 .2.2 0 0 1 .125.083l.2.306-1.53 1.465h-.519v-5.161zm-4.476.131a.21.21 0 0 1-.165-.067.25.25 0 0 1-.06-.175v-.429h3.425v.242a.45.45 0 0 1-.119.302l-1.644 1.83q-.204.231-.373.441a3 3 0 0 0-.286.429q-.12.214-.183.432a1.7 1.7 0 0 0-.065.473q0 .25.072.436a.84.84 0 0 0 .197.314.8.8 0 0 0 .29.183q.169.063.362.063.197 0 .362-.063a.96.96 0 0 0 .505-.445q.086-.155.122-.341.043-.14.118-.187.072-.043.205-.024l.333.064a2.3 2.3 0 0 1-.194.687q-.147.302-.365.504a1.5 1.5 0 0 1-.505.305 1.7 1.7 0 0 1-.613.108q-.326 0-.61-.108a1.4 1.4 0 0 1-.49-.313 1.4 1.4 0 0 1-.326-.496 1.8 1.8 0 0 1-.118-.667q0-.318.086-.592.086-.27.233-.516.145-.246.34-.48.19-.234.405-.473l1.354-1.532a2 2 0 0 1-.29.067 1.5 1.5 0 0 1-.283.028zM13.025 93.894a.13.13 0 0 1-.1-.052l-.277-.33q.315-.405.767-.63.448-.227 1.086-.227.552 0 1.003.21.452.215.77.596.32.385.495.921.176.535.176 1.18 0 .641-.183 1.178a2.8 2.8 0 0 1-.513.921 2.3 2.3 0 0 1-.795.596 2.4 2.4 0 0 1-1.021.214q-.549 0-.968-.194a2.4 2.4 0 0 1-.738-.528l.23-.354a.2.2 0 0 1 .057-.067.15.15 0 0 1 .09-.024q.064 0 .157.075.093.08.244.175a1.73 1.73 0 0 0 .931.25q.399 0 .728-.155.33-.15.57-.44.236-.291.368-.707.133-.417.133-.94 0-.533-.136-.95a2.2 2.2 0 0 0-.376-.706 1.6 1.6 0 0 0-.563-.437q-.325-.15-.702-.151-.23 0-.412.028a1.6 1.6 0 0 0-.34.095 1.4 1.4 0 0 0-.29.159q-.136.099-.27.234-.06.06-.121.06m-3.028-.651q-.258 0-.466.09-.21.093-.358.255-.15.163-.23.385-.082.223-.082.484 0 .279.08.5.078.228.225.382.144.159.344.242t.44.083q.26 0 .466-.099.208-.095.355-.262.144-.163.222-.381.076-.215.076-.449 0-.273-.072-.5a1.1 1.1 0 0 0-.208-.389 1 1 0 0 0-.337-.254 1.1 1.1 0 0 0-.455-.087m.373 3.033.133-.187q.06-.087.118-.175a1.43 1.43 0 0 1-.878.29 1.5 1.5 0 0 1-.588-.115 1.3 1.3 0 0 1-.48-.33 1.55 1.55 0 0 1-.33-.531 2 2 0 0 1-.121-.719q0-.393.129-.73a1.8 1.8 0 0 1 .362-.588q.229-.25.555-.393a1.7 1.7 0 0 1 .713-.143q.387 0 .702.135.316.139.538.39.218.252.34.61.118.362.118.806 0 .374-.147.794-.15.425-.476.906l-1.304 1.94a.4.4 0 0 1-.137.12.4.4 0 0 1-.204.052h-.566zm21.476 9.75H30.05v2.339h-.566v-2.339h-2.207v-.77h5.135v3.506h-.566zm-4.017 6.193q0 .33.068.568t.19.389a.76.76 0 0 0 .294.226q.171.072.376.072a.74.74 0 0 0 .627-.314q.233-.314.233-.941v-1.231h-1.788zm4.034-1.231h-1.752v1.017q0 .326.065.563.065.243.179.397a.7.7 0 0 0 .276.235q.166.075.358.075.454 0 .663-.302.21-.301.211-.937zm.549 1.048q0 .525-.094.902-.093.38-.265.623a1.05 1.05 0 0 1-.422.361 1.3 1.3 0 0 1-.56.115q-.19 0-.365-.067a1 1 0 0 1-.322-.195 1.4 1.4 0 0 1-.273-.333 2 2 0 0 1-.193-.469q-.108.628-.405.941-.294.318-.774.318-.326 0-.595-.135a1.3 1.3 0 0 1-.462-.389 1.9 1.9 0 0 1-.301-.627 3.2 3.2 0 0 1-.104-.85v-2.009h5.135zm-4.648 7.111h-.487v-3.049h.487v1.218h3.501q.157 0 .319.012l-.785-1.012a.3.3 0 0 1-.05-.103.3.3 0 0 1 0-.096.3.3 0 0 1 .029-.083.2.2 0 0 1 .046-.055l.276-.223 1.322 1.695v.576h-4.658zm4.082 8.778H30.05v2.339h-.566v-2.339h-2.207v-.77h5.135v3.506h-.566zm-4.017 6.193q0 .33.068.568t.19.389a.76.76 0 0 0 .294.226q.171.072.376.072a.74.74 0 0 0 .627-.314q.233-.314.233-.941v-1.231h-1.788zm4.034-1.231h-1.752v1.017q0 .326.065.563.065.243.179.397a.7.7 0 0 0 .276.235q.166.075.358.075.454 0 .663-.302.21-.301.211-.937zm.549 1.048q0 .524-.094.902-.093.38-.265.623a1.05 1.05 0 0 1-.422.361 1.3 1.3 0 0 1-.56.115q-.19 0-.365-.067a1 1 0 0 1-.322-.195 1.4 1.4 0 0 1-.273-.333 2 2 0 0 1-.193-.469q-.108.628-.405.941-.294.318-.774.318-.326 0-.595-.135a1.3 1.3 0 0 1-.462-.389 1.9 1.9 0 0 1-.301-.627 3.2 3.2 0 0 1-.104-.85v-2.009h5.135zm-4.529 6.987q0 .115-.061.183a.2.2 0 0 1-.158.068h-.387v-3.796h.219q.068 0 .14.032a.4.4 0 0 1 .132.099l1.652 1.823q.207.225.397.412.194.188.387.318.195.131.391.202.201.072.426.072a.9.9 0 0 0 .395-.079.8.8 0 0 0 .283-.219.9.9 0 0 0 .164-.321q.058-.187.058-.401 0-.22-.058-.401a1.1 1.1 0 0 0-.16-.326.95.95 0 0 0-.55-.369q-.124-.048-.168-.131a.4.4 0 0 1-.021-.226l.057-.37q.352.056.62.215.273.162.455.405.183.246.276.559a2.3 2.3 0 0 1 .097.679q0 .362-.097.675a1.6 1.6 0 0 1-.283.544 1.29 1.29 0 0 1-1.05.492q-.286 0-.534-.095a2 2 0 0 1-.465-.258 3.5 3.5 0 0 1-.434-.377q-.21-.21-.426-.449l-1.383-1.5a3 3 0 0 1 .086.635z" style="fill:#fff;fill-opacity:1"/><ellipse cx="38.951" cy="127.195" fill="#d9d9d9" rx="3.467" ry="4.638" style="fill:#d9d9d9;fill:color(display-p3 .851 .851 .851);fill-opacity:1"/><ellipse cx="38.951" cy="137.898" fill="#d9d9d9" rx="3.467" ry="4.638" style="fill:#d9d9d9;fill:color(display-p3 .851 .851 .851);fill-opacity:1"/><path fill="#181818" d="M35.483 126.839h6.935v10.56h-6.935z" style="fill:#181818;fill:color(display-p3 .0941 .0941 .0941);fill-opacity:1"/><ellipse cx="58.293" cy="115.228" fill="#d9d9d9" rx="2.467" ry="3.3" style="fill:#d9d9d9;fill:color(display-p3 .851 .851 .851);fill-opacity:1"/><ellipse cx="58.293" cy="122.843" fill="#d9d9d9" rx="2.467" ry="3.3" style="fill:#d9d9d9;fill:color(display-p3 .851 .851 .851);fill-opacity:1"/><path fill="#181818" d="M55.826 114.974h4.934v7.514h-4.934z" style="fill:#181818;fill:color(display-p3 .0941 .0941 .0941);fill-opacity:1"/><ellipse cx="67.309" cy="115.228" fill="#d9d9d9" rx="2.467" ry="3.3" style="fill:#d9d9d9;fill:color(display-p3 .851 .851 .851);fill-opacity:1"/><ellipse cx="67.309" cy="122.843" fill="#d9d9d9" rx="2.467" ry="3.3" style="fill:#d9d9d9;fill:color(display-p3 .851 .851 .851);fill-opacity:1"/><path fill="#181818" d="M64.842 114.974h4.934v7.514h-4.934z" style="fill:#181818;fill:color(display-p3 .0941 .0941 .0941);fill-opacity:1"/><path stroke="#fff" d="M88.498 88.736h17.953v6.744H88.498z" style="stroke:#fff;stroke-opacity:1" transform="rotate(90 88.498 88.736)"/><ellipse cx="85.224" cy="93.969" fill="#d9d9d9" rx="2.467" ry="3.3" style="fill:#d9d9d9;fill:color(display-p3 .851 .851 .851);fill-opacity:1"/><ellipse cx="85.224" cy="101.585" fill="#d9d9d9" rx="2.467" ry="3.3" style="fill:#d9d9d9;fill:color(display-p3 .851 .851 .851);fill-opacity:1"/><path fill="#181818" d="M82.757 93.715h4.934v7.514h-4.934z" style="fill:#181818;fill:color(display-p3 .0941 .0941 .0941);fill-opacity:1"/><path stroke="#fff" d="M117.278 123.058h17.953v6.744h-17.953z" style="stroke:#fff;stroke-opacity:1" transform="rotate(90 117.278 123.058)"/><ellipse cx="114.004" cy="128.291" fill="#d9d9d9" rx="2.467" ry="3.3" style="fill:#d9d9d9;fill:color(display-p3 .851 .851 .851);fill-opacity:1"/><ellipse cx="114.004" cy="135.906" fill="#d9d9d9" rx="2.467" ry="3.3" style="fill:#d9d9d9;fill:color(display-p3 .851 .851 .851);fill-opacity:1"/><path fill="#181818" d="M111.537 128.037h4.934v7.514h-4.934z" style="fill:#181818;fill:color(display-p3 .0941 .0941 .0941);fill-opacity:1"/><path stroke="#fff" d="M80.292 219.362h12.831v5.704H80.292z" style="stroke:#fff;stroke-opacity:1" transform="rotate(90 80.292 219.362)"/><ellipse cx="77.517" cy="223.045" fill="#d9d9d9" rx="2.131" ry="2.408" style="fill:#d9d9d9;fill:color(display-p3 .851 .851 .851);fill-opacity:1"/><ellipse cx="77.517" cy="228.602" fill="#d9d9d9" rx="2.131" ry="2.408" style="fill:#d9d9d9;fill:color(display-p3 .851 .851 .851);fill-opacity:1"/><path fill="#181818" d="M75.386 222.86h4.262v5.483h-4.262z" style="fill:#181818;fill:color(display-p3 .0941 .0941 .0941);fill-opacity:1"/><ellipse cx="38.951" cy="104.144" fill="#d9d9d9" rx="3.467" ry="4.638" style="fill:#d9d9d9;fill:color(display-p3 .851 .851 .851);fill-opacity:1"/><ellipse cx="38.951" cy="114.846" fill="#d9d9d9" rx="3.467" ry="4.638" style="fill:#d9d9d9;fill:color(display-p3 .851 .851 .851);fill-opacity:1"/><path fill="#181818" d="M35.483 103.787h6.935v10.56h-6.935z" style="fill:#181818;fill:color(display-p3 .0941 .0941 .0941);fill-opacity:1"/><ellipse cx="28.573" cy="92.719" fill="#d9d9d9" rx="3.842" ry="4.186" style="fill:#d9d9d9;fill:color(display-p3 .851 .851 .851);fill-opacity:1" transform="rotate(-90 28.573 92.719)"/><ellipse cx="38.233" cy="92.719" fill="#d9d9d9" rx="3.842" ry="4.186" style="fill:#d9d9d9;fill:color(display-p3 .851 .851 .851);fill-opacity:1" transform="rotate(-90 38.233 92.719)"/><path fill="#403927" d="M28.252 96.561h7.684v9.531h-7.684z" style="fill:#403927;fill:color(display-p3 .251 .2235 .1529);fill-opacity:1" transform="rotate(-90 28.252 96.56)"/><ellipse cx="28.573" cy="81.961" fill="#d9d9d9" rx="3.842" ry="4.186" style="fill:#d9d9d9;fill:color(display-p3 .851 .851 .851);fill-opacity:1" transform="rotate(-90 28.573 81.961)"/><ellipse cx="38.233" cy="81.961" fill="#d9d9d9" rx="3.842" ry="4.186" style="fill:#d9d9d9;fill:color(display-p3 .851 .851 .851);fill-opacity:1" transform="rotate(-90 38.233 81.961)"/><path fill="#403927" d="M28.252 85.803h7.684v9.531h-7.684z" style="fill:#403927;fill:color(display-p3 .251 .2235 .1529);fill-opacity:1" transform="rotate(-90 28.252 85.803)"/><ellipse cx="93.115" cy="163.073" fill="#d9d9d9" rx="1.458" ry="1.95" style="fill:#d9d9d9;fill:color(display-p3 .851 .851 .851);fill-opacity:1" transform="rotate(180 93.115 163.073)"/><ellipse cx="93.115" cy="158.573" fill="#d9d9d9" rx="1.458" ry="1.95" style="fill:#d9d9d9;fill:color(display-p3 .851 .851 .851);fill-opacity:1" transform="rotate(180 93.115 158.573)"/><path fill="#403927" d="M94.573 163.223h2.916v4.441h-2.916z" style="fill:#403927;fill:color(display-p3 .251 .2235 .1529);fill-opacity:1" transform="rotate(180 94.573 163.223)"/><ellipse cx="108.921" cy="166.676" fill="#d9d9d9" rx="1.601" ry="1.76" style="fill:#d9d9d9;fill:color(display-p3 .851 .851 .851);fill-opacity:1" transform="rotate(90 108.921 166.676)"/><ellipse cx="104.86" cy="166.676" fill="#d9d9d9" rx="1.601" ry="1.76" style="fill:#d9d9d9;fill:color(display-p3 .851 .851 .851);fill-opacity:1" transform="rotate(90 104.86 166.676)"/><path fill="#403927" d="M109.057 165.075h3.202v4.008h-3.202z" style="fill:#403927;fill:color(display-p3 .251 .2235 .1529);fill-opacity:1" transform="rotate(90 109.057 165.075)"/><ellipse cx="109.5" cy="200.485" fill="#d9d9d9" rx="1.601" ry="1.76" style="fill:#d9d9d9;fill:color(display-p3 .851 .851 .851);fill-opacity:1" transform="rotate(90 109.5 200.485)"/><ellipse cx="105.438" cy="200.485" fill="#d9d9d9" rx="1.601" ry="1.76" style="fill:#d9d9d9;fill:color(display-p3 .851 .851 .851);fill-opacity:1" transform="rotate(90 105.438 200.485)"/><path fill="#403927" d="M109.635 198.884h3.202v4.008h-3.202z" style="fill:#403927;fill:color(display-p3 .251 .2235 .1529);fill-opacity:1" transform="rotate(90 109.635 198.884)"/><ellipse cx="122.575" cy="181.496" fill="#d9d9d9" rx="1.445" ry="1.95" style="fill:#d9d9d9;fill:color(display-p3 .851 .851 .851);fill-opacity:1"/><ellipse cx="122.575" cy="185.997" fill="#d9d9d9" rx="1.445" ry="1.95" style="fill:#d9d9d9;fill:color(display-p3 .851 .851 .851);fill-opacity:1"/><path fill="#403927" d="M121.13 181.346h2.89v4.441h-2.89z" style="fill:#403927;fill:color(display-p3 .251 .2235 .1529);fill-opacity:1"/><rect width="19.302" height="9.477" x="77.786" y="128.577" fill="#d9d9d9" rx="4.738" style="fill:#d9d9d9;fill:color(display-p3 .851 .851 .851);fill-opacity:1"/><path fill="#afa88e" d="M28.549 24.076H83.45v17.289H28.549z" style="fill:#afa88e;fill:color(display-p3 .6875 .6571 .5557);fill-opacity:1"/><rect width="1.849" height="4.738" x="45.077" y="11.014" fill="#d9d9d9" rx=".925" style="fill:#d9d9d9;fill:color(display-p3 .851 .851 .851);fill-opacity:1"/><rect width="1.849" height="4.738" x="52.359" y="11.014" fill="#d9d9d9" rx=".925" style="fill:#d9d9d9;fill:color(display-p3 .851 .851 .851);fill-opacity:1"/><rect width="1.849" height="4.738" x="59.409" y="11.014" fill="#d9d9d9" rx=".925" style="fill:#d9d9d9;fill:color(display-p3 .851 .851 .851);fill-opacity:1"/><rect width="1.849" height="4.738" x="66.691" y="11.014" fill="#d9d9d9" rx=".925" style="fill:#d9d9d9;fill:color(display-p3 .851 .851 .851);fill-opacity:1"/><path fill="#afa88e" d="M36.293 39.828h39.529v4.738H36.293z" style="fill:#afa88e;fill:color(display-p3 .6875 .6571 .5557);fill-opacity:1"/><path fill="#fcf8f8" d="M45.887 29.583h1.04v7.812l-.52 2.177-.52-2.177zm6.934 0h1.04v7.812l-.52 2.177-.52-2.177zm5.779 0h1.04v7.812l-.52 2.177-.52-2.177zm6.242 0h1.04v7.812l-.52 2.177-.52-2.177z" style="fill:#fcf8f8;fill:color(display-p3 .9875 .971 .971);fill-opacity:1"/><rect width="10.518" height="13.703" x="107.606" y="218.734" fill="#494947" rx="2" style="fill:#494947;fill:color(display-p3 .2863 .2863 .2784);fill-opacity:1"/><rect width="11.674" height="6.275" x="104.14" y="172.631" fill="#181818" rx="3.138" style="fill:#181818;fill:color(display-p3 .0941 .0941 .0941);fill-opacity:1"/><rect width="5.548" height="2.561" x="75.821" y="145.481" fill="#d9d9d9" rx="1.281" style="fill:#d9d9d9;fill:color(display-p3 .851 .851 .851);fill-opacity:1"/><rect width="5.548" height="2.561" x="95.586" y="145.481" fill="#d9d9d9" rx="1.281" style="fill:#d9d9d9;fill:color(display-p3 .851 .851 .851);fill-opacity:1"/><rect width="4.97" height="12.038" x="102.405" y="127.168" fill="#fff" rx="2.485" style="fill:#fff;fill-opacity:1"/><ellipse cx="3.93" cy="14.343" fill="#18421e" rx="1.271" ry="1.409" style="fill:#18421e;fill:color(display-p3 .0926 .2583 .1162);fill-opacity:1"/><ellipse cx="3.93" cy="29.71" fill="#18421e" rx="1.271" ry="1.409" style="fill:#18421e;fill:color(display-p3 .0926 .2583 .1162);fill-opacity:1"/><ellipse cx="3.93" cy="45.078" fill="#18421e" rx="1.271" ry="1.409" style="fill:#18421e;fill:color(display-p3 .0926 .2583 .1162);fill-opacity:1"/><ellipse cx="3.93" cy="60.446" fill="#18421e" rx="1.271" ry="1.409" style="fill:#18421e;fill:color(display-p3 .0926 .2583 .1162);fill-opacity:1"/><ellipse cx="3.93" cy="75.814" fill="#18421e" rx="1.271" ry="1.409" style="fill:#18421e;fill:color(display-p3 .0926 .2583 .1162);fill-opacity:1"/><ellipse cx="123.903" cy="37.01" fill="#18421e" rx="1.271" ry="1.409" style="fill:#18421e;fill:color(display-p3 .0926 .2583 .1162);fill-opacity:1"/><ellipse cx="123.903" cy="4.482" fill="#18421e" rx="1.271" ry="1.409" style="fill:#18421e;fill:color(display-p3 .0926 .2583 .1162);fill-opacity:1"/><ellipse cx="109.687" cy="47.768" fill="#18421e" rx="1.271" ry="1.409" style="fill:#18421e;fill:color(display-p3 .0926 .2583 .1162);fill-opacity:1"/><ellipse cx="115.812" cy="85.674" fill="#18421e" rx="1.271" ry="1.409" style="fill:#18421e;fill:color(display-p3 .0926 .2583 .1162);fill-opacity:1"/><ellipse cx="115.812" cy="101.427" fill="#18421e" rx="1.271" ry="1.409" style="fill:#18421e;fill:color(display-p3 .0926 .2583 .1162);fill-opacity:1"/><ellipse cx="126.446" cy="126.143" fill="#18421e" rx="1.271" ry="1.409" style="fill:#18421e;fill:color(display-p3 .0926 .2583 .1162);fill-opacity:1"/><ellipse cx="126.446" cy="142.535" fill="#18421e" rx="1.271" ry="1.409" style="fill:#18421e;fill:color(display-p3 .0926 .2583 .1162);fill-opacity:1"/><ellipse cx="127.718" cy="158.927" fill="#18421e" rx="1.271" ry="1.409" style="fill:#18421e;fill:color(display-p3 .0926 .2583 .1162);fill-opacity:1"/><ellipse cx="128.99" cy="244.474" fill="#18421e" rx="1.271" ry="1.409" style="fill:#18421e;fill:color(display-p3 .0926 .2583 .1162);fill-opacity:1"/><ellipse cx="124.366" cy="244.474" fill="#18421e" rx="1.271" ry="1.409" style="fill:#18421e;fill:color(display-p3 .0926 .2583 .1162);fill-opacity:1"/><ellipse cx="119.743" cy="244.474" fill="#18421e" rx="1.271" ry="1.409" style="fill:#18421e;fill:color(display-p3 .0926 .2583 .1162);fill-opacity:1"/><ellipse cx="115.119" cy="244.474" fill="#18421e" rx="1.271" ry="1.409" style="fill:#18421e;fill:color(display-p3 .0926 .2583 .1162);fill-opacity:1"/><ellipse cx="114.946" cy="244.474" fill="#18421e" rx="1.098" ry="1.409" style="fill:#18421e;fill:color(display-p3 .0926 .2583 .1162);fill-opacity:1"/><ellipse cx="110.323" cy="244.474" fill="#18421e" rx="1.098" ry="1.409" style="fill:#18421e;fill:color(display-p3 .0926 .2583 .1162);fill-opacity:1"/><ellipse cx="105.7" cy="244.474" fill="#18421e" rx="1.098" ry="1.409" style="fill:#18421e;fill:color(display-p3 .0926 .2583 .1162);fill-opacity:1"/><ellipse cx="68.771" cy="244.474" fill="#18421e" rx="1.271" ry="1.409" style="fill:#18421e;fill:color(display-p3 .0926 .2583 .1162);fill-opacity:1"/><ellipse cx="64.147" cy="244.474" fill="#18421e" rx="1.271" ry="1.409" style="fill:#18421e;fill:color(display-p3 .0926 .2583 .1162);fill-opacity:1"/><ellipse cx="59.525" cy="244.474" fill="#18421e" rx="1.271" ry="1.409" style="fill:#18421e;fill:color(display-p3 .0926 .2583 .1162);fill-opacity:1"/><ellipse cx="54.728" cy="244.474" fill="#18421e" rx="1.098" ry="1.409" style="fill:#18421e;fill:color(display-p3 .0926 .2583 .1162);fill-opacity:1"/><ellipse cx="50.105" cy="244.474" fill="#18421e" rx="1.098" ry="1.409" style="fill:#18421e;fill:color(display-p3 .0926 .2583 .1162);fill-opacity:1"/><ellipse cx="45.481" cy="244.474" fill="#18421e" rx="1.098" ry="1.409" style="fill:#18421e;fill:color(display-p3 .0926 .2583 .1162);fill-opacity:1"/><ellipse cx="40.685" cy="244.474" fill="#18421e" rx="1.271" ry="1.409" style="fill:#18421e;fill:color(display-p3 .0926 .2583 .1162);fill-opacity:1"/><ellipse cx="36.061" cy="244.474" fill="#18421e" rx="1.271" ry="1.409" style="fill:#18421e;fill:color(display-p3 .0926 .2583 .1162);fill-opacity:1"/><ellipse cx="31.438" cy="244.474" fill="#18421e" rx="1.271" ry="1.409" style="fill:#18421e;fill:color(display-p3 .0926 .2583 .1162);fill-opacity:1"/><ellipse cx="26.641" cy="244.474" fill="#18421e" rx="1.098" ry="1.409" style="fill:#18421e;fill:color(display-p3 .0926 .2583 .1162);fill-opacity:1"/><ellipse cx="22.019" cy="244.474" fill="#18421e" rx="1.098" ry="1.409" style="fill:#18421e;fill:color(display-p3 .0926 .2583 .1162);fill-opacity:1"/><ellipse cx="17.395" cy="244.474" fill="#18421e" rx="1.098" ry="1.409" style="fill:#18421e;fill:color(display-p3 .0926 .2583 .1162);fill-opacity:1"/><ellipse cx="12.772" cy="244.474" fill="#18421e" rx="1.098" ry="1.409" style="fill:#18421e;fill:color(display-p3 .0926 .2583 .1162);fill-opacity:1"/><ellipse cx="8.148" cy="244.474" fill="#18421e" rx="1.098" ry="1.409" style="fill:#18421e;fill:color(display-p3 .0926 .2583 .1162);fill-opacity:1"/><g filter="url(#a)"><path fill="#000" d="M44.187 39.218h5.821V320h-5.821z" style="fill:#000;fill-opacity:1"/></g><g filter="url(#b)"><path fill="#fff" d="M50.007 39.218h6.085V320h-6.085z" style="fill:#fff;fill-opacity:1"/></g><g filter="url(#c)"><path fill="#fff" d="M56.093 39.218h5.821V320h-5.821z" style="fill:#fff;fill-opacity:1"/></g><g filter="url(#d)"><path fill="#fff" d="M61.913 39.218h6.085V320h-6.085z" style="fill:#fff;fill-opacity:1"/></g><g filter="url(#e)"><path fill="#fff" d="M39.159 38.928h33.867v4.651H39.159z" style="fill:#fff;fill-opacity:1"/></g><path fill="#eaeaea" stroke="#fff" stroke-width="5" d="M44.569 28.639H67.88v8.952H44.569z" style="fill:#eaeaea;fill:color(display-p3 .9167 .9167 .9167);fill-opacity:1;stroke:#fff;stroke-opacity:1"/><path fill="#fff" d="M44.45 29.918h4.763v10.173H44.45zm6.087 0H55.3v10.173h-4.763zm6.085 0h4.763v10.173h-4.763zm6.085 0h4.763v10.173h-4.763z" style="fill:#fff;fill-opacity:1"/><path fill="#f3f3f3" d="M44.45 29.918h4.763v2.616H44.45zm6.087 0H55.3v2.616h-4.763zm6.085 0h4.763v2.616h-4.763zm6.085 0h4.763v2.616h-4.763z" style="fill:#f3f3f3;fill:color(display-p3 .9542 .9542 .9542);fill-opacity:1"/><path fill="#fff" d="m46.7 26.72 1.49 2.616h-2.98zm6.35 0 1.49 2.616h-2.98zm5.821 0 1.49 2.616h-2.98zm5.821 0 1.49 2.616h-2.979z" style="fill:#fff;fill-opacity:1"/><g filter="url(#f)"><path fill="#e7dec0" fill-rule="evenodd" d="M36.321 15.237h39.53v22.508h-6.126v-4.937H42.447v4.937h-6.126z" clip-rule="evenodd" style="fill:#e7dec0;fill:color(display-p3 .9042 .871 .7535);fill-opacity:1"/><path fill="#e7dec0" d="M28.576 18.286h5.548v22.799h-5.548z" style="fill:#e7dec0;fill:color(display-p3 .9059 .8706 .7529);fill-opacity:1"/><path fill="#dbd2b3" d="m34.124 18.334 2.196-3.097v22.606l-2.196 3.097z" style="fill:#dbd2b3;fill:color(display-p3 .8583 .822 .701);fill-opacity:1"/><path fill="#e7dec0" d="M0 0h5.548v22.799H0z" style="fill:#e7dec0;fill:color(display-p3 .9059 .8706 .7529);fill-opacity:1" transform="matrix(-1 0 0 1 83.478 18.286)"/><path fill="#dbd2b3" d="m77.93 18.334-2.196-3.097v22.606l2.196 3.097z" style="fill:#dbd2b3;fill:color(display-p3 .8583 .822 .701);fill-opacity:1"/></g><defs><filter id="a" width="13.821" height="288.782" x="40.187" y="39.218" color-interpolation-filters="sRGB" filterUnits="userSpaceOnUse"><feFlood flood-opacity="0" result="BackgroundImageFix"/><feColorMatrix in="SourceAlpha" result="hardAlpha" values="0 0 0 0 0 0 0 0 0 0 0 0 0 0 0 0 0 0 127 0"/><feOffset dy="4"/><feGaussianBlur stdDeviation="2"/><feComposite in2="hardAlpha" operator="out"/><feColorMatrix values="0 0 0 0 0 0 0 0 0 0 0 0 0 0 0 0 0 0 0.25 0"/><feBlend in2="BackgroundImageFix" result="effect1_dropShadow_3312_2971"/><feBlend in="SourceGraphic" in2="effect1_dropShadow_3312_2971" result="shape"/></filter><filter id="b" width="14.086" height="288.782" x="46.007" y="39.218" color-interpolation-filters="sRGB" filterUnits="userSpaceOnUse"><feFlood flood-opacity="0" result="BackgroundImageFix"/><feColorMatrix in="SourceAlpha" result="hardAlpha" values="0 0 0 0 0 0 0 0 0 0 0 0 0 0 0 0 0 0 127 0"/><feOffset dy="4"/><feGaussianBlur stdDeviation="2"/><feComposite in2="hardAlpha" operator="out"/><feColorMatrix values="0 0 0 0 0 0 0 0 0 0 0 0 0 0 0 0 0 0 0.25 0"/><feBlend in2="BackgroundImageFix" result="effect1_dropShadow_3312_2971"/><feBlend in="SourceGraphic" in2="effect1_dropShadow_3312_2971" result="shape"/></filter><filter id="c" width="13.821" height="288.782" x="52.093" y="39.218" color-interpolation-filters="sRGB" filterUnits="userSpaceOnUse"><feFlood flood-opacity="0" result="BackgroundImageFix"/><feColorMatrix in="SourceAlpha" result="hardAlpha" values="0 0 0 0 0 0 0 0 0 0 0 0 0 0 0 0 0 0 127 0"/><feOffset dy="4"/><feGaussianBlur stdDeviation="2"/><feComposite in2="hardAlpha" operator="out"/><feColorMatrix values="0 0 0 0 0 0 0 0 0 0 0 0 0 0 0 0 0 0 0.25 0"/><feBlend in2="BackgroundImageFix" result="effect1_dropShadow_3312_2971"/><feBlend in="SourceGraphic" in2="effect1_dropShadow_3312_2971" result="shape"/></filter><filter id="d" width="14.086" height="288.782" x="57.913" y="39.218" color-interpolation-filters="sRGB" filterUnits="userSpaceOnUse"><feFlood flood-opacity="0" result="BackgroundImageFix"/><feColorMatrix in="SourceAlpha" result="hardAlpha" values="0 0 0 0 0 0 0 0 0 0 0 0 0 0 0 0 0 0 127 0"/><feOffset dy="4"/><feGaussianBlur stdDeviation="2"/><feComposite in2="hardAlpha" operator="out"/><feColorMatrix values="0 0 0 0 0 0 0 0 0 0 0 0 0 0 0 0 0 0 0.25 0"/><feBlend in2="BackgroundImageFix" result="effect1_dropShadow_3312_2971"/><feBlend in="SourceGraphic" in2="effect1_dropShadow_3312_2971" result="shape"/></filter><filter id="e" width="41.867" height="12.65" x="35.159" y="38.928" color-interpolation-filters="sRGB" filterUnits="userSpaceOnUse"><feFlood flood-opacity="0" result="BackgroundImageFix"/><feColorMatrix in="SourceAlpha" result="hardAlpha" values="0 0 0 0 0 0 0 0 0 0 0 0 0 0 0 0 0 0 127 0"/><feOffset dy="4"/><feGaussianBlur stdDeviation="2"/><feComposite in2="hardAlpha" operator="out"/><feColorMatrix values="0 0 0 0 0 0 0 0 0 0 0 0 0 0 0 0 0 0 0.17 0"/><feBlend in2="BackgroundImageFix" result="effect1_dropShadow_3312_2971"/><feBlend in="SourceGraphic" in2="effect1_dropShadow_3312_2971" result="shape"/></filter><filter id="f" width="62.901" height="33.848" x="24.576" y="15.237" color-interpolation-filters="sRGB" filterUnits="userSpaceOnUse"><feFlood flood-opacity="0" result="BackgroundImageFix"/><feColorMatrix in="SourceAlpha" result="hardAlpha" values="0 0 0 0 0 0 0 0 0 0 0 0 0 0 0 0 0 0 127 0"/><feOffset dy="4"/><feGaussianBlur stdDeviation="2"/><feComposite in2="hardAlpha" operator="out"/><feColorMatrix values="0 0 0 0 0 0 0 0 0 0 0 0 0 0 0 0 0 0 0.14 0"/><feBlend in2="BackgroundImageFix" result="effect1_dropShadow_3312_2971"/><feBlend in="SourceGraphic" in2="effect1_dropShadow_3312_2971" result="shape"/></filter></defs></svg>