<?xml version="1.0" standalone="no"?>
<!DOCTYPE svg PUBLIC "-//W3C//DTD SVG 20010904//EN"
 "http://www.w3.org/TR/2001/REC-SVG-20010904/DTD/svg10.dtd">
<svg version="1.0" xmlns="http://www.w3.org/2000/svg"
 width="1200.000000pt" height="630.000000pt" viewBox="0 0 1200.000000 630.000000"
 preserveAspectRatio="xMidYMid meet">

<g transform="translate(0.000000,630.000000) scale(0.100000,-0.100000)"
fill="#000000" stroke="none">
<path d="M4685 5274 c-371 -50 -653 -280 -769 -625 -54 -162 -56 -205 -56
-1499 0 -1294 2 -1337 56 -1499 95 -282 305 -491 587 -585 165 -55 205 -56
1497 -56 1292 0 1332 1 1497 56 284 94 495 306 587 588 56 170 57 207 53 1556
-2 679 -7 1253 -11 1275 -37 184 -109 348 -203 460 -160 189 -359 295 -620
330 -163 21 -2460 20 -2618 -1z m404 -1877 c52 -26 66 -61 66 -162 0 -79 -3
-98 -21 -122 -36 -48 -53 -51 -312 -55 -202 -2 -244 -5 -252 -18 -5 -8 -10
-55 -10 -103 l0 -88 -47 3 -48 3 0 107 c0 93 3 110 21 135 38 50 51 53 306 53
233 0 237 0 252 22 18 25 21 104 6 128 -8 13 -56 16 -297 20 l-288 5 -3 28
c-7 59 -19 57 305 57 217 0 305 -4 322 -13z m761 -5 c64 -32 70 -57 70 -315
l0 -228 -47 3 -48 3 -3 103 -3 103 -216 -1 c-120 -1 -225 -6 -235 -11 -15 -8
-18 -23 -18 -82 0 -109 -4 -117 -56 -117 l-44 0 0 105 c0 119 12 155 60 180
24 12 74 15 270 15 l240 0 0 63 c0 104 5 101 -224 105 -209 3 -226 0 -248 -46
-11 -23 -20 -27 -53 -27 -38 0 -40 2 -43 32 -4 42 21 89 61 113 29 18 52 20
267 20 204 0 240 -2 270 -18z m819 0 c62 -31 71 -64 71 -257 0 -144 -3 -176
-19 -211 -33 -72 -46 -75 -383 -72 l-293 3 -3 265 c-1 146 0 270 3 277 3 10
70 13 297 13 259 0 297 -2 327 -18z m798 1 c61 -29 73 -70 73 -263 0 -186 -8
-217 -69 -257 -33 -22 -41 -23 -275 -23 -265 0 -287 4 -330 63 -19 26 -21 42
-21 215 0 208 7 236 69 266 48 24 504 23 553 -1z"/>
<path d="M6147 3314 c-4 -4 -7 -88 -7 -186 l0 -178 234 0 c200 0 237 2 250 16
22 22 23 300 2 330 -13 18 -30 19 -243 22 -126 2 -232 0 -236 -4z"/>
<path d="M6965 3296 c-24 -24 -25 -29 -25 -163 0 -198 -20 -183 250 -183 l220
0 16 24 c13 21 15 50 12 170 -2 102 -7 149 -16 158 -10 10 -68 14 -222 16
l-210 3 -25 -25z"/>
</g>
</svg>
