<svg xmlns="http://www.w3.org/2000/svg" width="1600" height="840" viewBox="0 0 1200 630"><path d="M468.5 102.6c-37.1 5-65.3 28-76.9 62.5-5.4 16.2-5.6 20.5-5.6 149.9s.2 133.7 5.6 149.9c9.5 28.2 30.5 49.1 58.7 58.5 16.5 5.5 20.5 5.6 149.7 5.6s133.2-.1 149.7-5.6c28.4-9.4 49.5-30.6 58.7-58.8 5.6-17 5.7-20.7 5.3-155.6-.2-67.9-.7-125.3-1.1-127.5-3.7-18.4-10.9-34.8-20.3-46-16-18.9-35.9-29.5-62-33-16.3-2.1-246-2-261.8.1m40.4 187.7c5.2 2.6 6.6 6.1 6.6 16.2 0 7.9-.3 9.8-2.1 12.2-3.6 4.8-5.3 5.1-31.2 5.5-20.2.2-24.4.5-25.2 1.8-.5.8-1 5.5-1 10.3v8.8l-4.7-.3-4.8-.3v-10.7c0-9.3.3-11 2.1-13.5 3.8-5 5.1-5.3 30.6-5.3 23.3 0 23.7 0 25.2-2.2 1.8-2.5 2.1-10.4.6-12.8-.8-1.3-5.6-1.6-29.7-2l-28.8-.5-.3-2.8c-.7-5.9-1.9-5.7 30.5-5.7 21.7 0 30.5.4 32.2 1.3m76.1.5c6.4 3.2 7 5.7 7 31.5v22.8l-4.7-.3-4.8-.3-.3-10.3-.3-10.3-21.6.1c-12 .1-22.5.6-23.5 1.1-1.5.8-1.8 2.3-1.8 8.2 0 10.9-.4 11.7-5.6 11.7H525v-10.5c0-11.9 1.2-15.5 6-18 2.4-1.2 7.4-1.5 27-1.5h24v-6.3c0-10.4.5-10.1-22.4-10.5-20.9-.3-22.6 0-24.8 4.6-1.1 2.3-2 2.7-5.3 2.7-3.8 0-4-.2-4.3-3.2-.4-4.2 2.1-8.9 6.1-11.3 2.9-1.8 5.2-2 26.7-2 20.4 0 24 .2 27 1.8m81.9 0c6.2 3.1 7.1 6.4 7.1 25.7 0 14.4-.3 17.6-1.9 21.1-3.3 7.2-4.6 7.5-38.3 7.2l-29.3-.3-.3-26.5c-.1-14.6 0-27 .3-27.7.3-1 7-1.3 29.7-1.3 25.9 0 29.7.2 32.7 1.8m79.8-.1c6.1 2.9 7.3 7 7.3 26.3 0 18.6-.8 21.7-6.9 25.7-3.3 2.2-4.1 2.3-27.5 2.3-26.5 0-28.7-.4-33-6.3-1.9-2.6-2.1-4.2-2.1-21.5 0-20.8.7-23.6 6.9-26.6 4.8-2.4 50.4-2.3 55.3.1"/><path d="M614.7 298.6c-.4.4-.7 8.8-.7 18.6V335h23.4c20 0 23.7-.2 25-1.6 2.2-2.2 2.3-30 .2-33-1.3-1.8-3-1.9-24.3-2.2-12.6-.2-23.2 0-23.6.4m81.8 1.8c-2.4 2.4-2.5 2.9-2.5 16.3 0 19.8-2 18.3 25 18.3h22l1.6-2.4c1.3-2.1 1.5-5 1.2-17-.2-10.2-.7-14.9-1.6-15.8-1-1-6.8-1.4-22.2-1.6l-21-.3z"/></svg>