<?xml version="1.0" encoding="UTF-8"?>
<svg id="preto" xmlns="http://www.w3.org/2000/svg" version="1.1" viewBox="0 0 1920 586.7">
  <defs>
    <style>
      .cls-1 {
        fill: #000;
        stroke-width: 0px;
      }
    </style>
  </defs>
  <path class="cls-1" d="M1594,278.2h-9.9l-14.3,30.4h8.3l2.5-5.5h15.6l2.3,5.5h8.7l-13.3-30.4ZM1583.2,297l5.5-12.2,5.1,12.2h-10.6ZM1705.6,309.4c-12.4,0-15.6-4.6-15.6-10.4h8.5c0,3.5,3.5,4.4,7.6,4.4s7.6-1.4,7.6-3.5-1.4-2.3-5.5-3l-7.8-1.2c-4.8-.7-9.7-2.5-9.7-9s7.6-9.7,15-9.7,15.4,3.7,15.4,9.9h-8.1c-.2-3-4.1-3.9-8.1-3.9s-6.2.9-6.2,3,2.1,2.5,5.8,3l6.4.9c6.4.9,10.8,3.2,10.8,9.2s-6.9,10.1-16.1,10.1M1667.4,277.2c-11.7,0-17.7,7.4-17.7,16.1s5.1,16.1,17.7,16.1,17.7-7.4,17.7-16.1-5.1-16.1-17.7-16.1ZM1667.4,303.2c-6.4,0-9.2-4.6-9.2-9.9s3-9.9,9.2-9.9,9.2,4.6,9.2,9.9-3,9.9-9.2,9.9ZM1611.9,278.2h9.2l15,20.5v-20.5h7.4v30.4h-9.2l-15-20.2v20.2h-7.4v-30.4Z"/>
  <path class="cls-1" d="M1681.7,201.3h-69.9c-54.3,0-93.6,39.6-93.6,92s39.3,92,93.6,92h69.9c54.3,0,93.6-39.3,93.6-92s-39.3-92-93.6-92ZM1681.7,347.6h-69.9c-33.4,0-53.6-21.6-53.6-54.3s20.2-54.3,53.6-54.3h69.9c33.4,0,53.6,21.6,53.6,54.3s-20.2,54.3-53.6,54.3ZM1455,337.1c0-5.8-3.5-9.2-9.2-9.2h-122.6c-41,0-66.5-24.4-66.5-63s25.5-63.5,66.5-63.5h127.2c26.5,0,43.7,17.3,43.7,43.7v26.9h-39.1v-23.7c0-5.8-3.5-9.2-9.2-9.2h-121.3c-17.5,0-27.8,9.9-27.8,25.8s10.4,25.3,27.8,25.3h125.9c26.5,0,43.7,17.3,43.7,43.7v51.5h-39.1v-48.3"/>
  <path class="cls-1" d="M1125.8,201.3h-78c-54.3,0-93.6,39.6-93.6,92s39.3,92,93.6,92h78c54.3,0,93.6-39.3,93.6-92s-39.3-92-93.6-92ZM1125.8,347.6h-78c-33.4,0-53.6-21.2-53.6-54.3s20.2-54.3,53.6-54.3h78c33.4,0,53.6,21.2,53.6,54.3s-20.2,54.3-53.6,54.3ZM834.3,201.3h-148.6v184.1h148.6c54.3,0,93.6-39.3,93.6-92s-39.3-92-93.6-92ZM834.3,347.6h-109.5v-108.6h109.5c33.4,0,53.6,21.2,53.6,54.3s-20.2,54.3-53.6,54.3ZM410.4,333.8c0-26.5,17.3-43.7,43.7-43.7h155.1v-41.9c0-5.8-3.5-9.2-9.2-9.2h-141.7c-5.8,0-9.2,3.5-9.2,9.2v19.1h-38.7v-22.3c0-26.5,17.3-43.7,43.7-43.7h150.5c26.5,0,43.7,17.3,43.7,43.7v140.4h-39.1v-57.5h-150.5c-5.8,0-9.2,3.5-9.2,9.2v48.3h-39.1v-51.5M145.9,333.8c0-26.5,17.3-43.7,43.7-43.7h126.3c17.5,0,27.8-9.7,27.8-25.5s-10.4-25.5-27.8-25.5h-171.2v-37.7h172.6c41,0,66.5,24.8,66.5,63.5s-25.5,63-66.5,63h-123.1c-5.8,0-9.2,3.5-9.2,9.2v48.3h-39.1v-51.5"/>
</svg>