<svg xmlns="http://www.w3.org/2000/svg" id="preto" viewBox="0 0 1920 586.7"><defs><style>.cls-1{fill:#000;stroke-width:0}</style></defs><path d="M1594 278.2h-9.9l-14.3 30.4h8.3l2.5-5.5h15.6l2.3 5.5h8.7l-13.3-30.4Zm-10.8 18.8 5.5-12.2 5.1 12.2zm122.4 12.4c-12.4 0-15.6-4.6-15.6-10.4h8.5c0 3.5 3.5 4.4 7.6 4.4s7.6-1.4 7.6-3.5-1.4-2.3-5.5-3l-7.8-1.2c-4.8-.7-9.7-2.5-9.7-9s7.6-9.7 15-9.7 15.4 3.7 15.4 9.9h-8.1c-.2-3-4.1-3.9-8.1-3.9s-6.2.9-6.2 3 2.1 2.5 5.8 3l6.4.9c6.4.9 10.8 3.2 10.8 9.2s-6.9 10.1-16.1 10.1m-38.2-32c-11.7 0-17.7 7.4-17.7 16.1s5.1 16.1 17.7 16.1 17.7-7.4 17.7-16.1-5.1-16.1-17.7-16.1m0 26c-6.4 0-9.2-4.6-9.2-9.9s3-9.9 9.2-9.9 9.2 4.6 9.2 9.9-3 9.9-9.2 9.9m-55.5-25h9.2l15 20.5v-20.5h7.4v30.4h-9.2l-15-20.2v20.2h-7.4z" class="cls-1"/><path d="M1681.7 201.3h-69.9c-54.3 0-93.6 39.6-93.6 92s39.3 92 93.6 92h69.9c54.3 0 93.6-39.3 93.6-92s-39.3-92-93.6-92m0 146.3h-69.9c-33.4 0-53.6-21.6-53.6-54.3s20.2-54.3 53.6-54.3h69.9c33.4 0 53.6 21.6 53.6 54.3s-20.2 54.3-53.6 54.3M1455 337.1c0-5.8-3.5-9.2-9.2-9.2h-122.6c-41 0-66.5-24.4-66.5-63s25.5-63.5 66.5-63.5h127.2c26.5 0 43.7 17.3 43.7 43.7V272H1455v-23.7c0-5.8-3.5-9.2-9.2-9.2h-121.3c-17.5 0-27.8 9.9-27.8 25.8s10.4 25.3 27.8 25.3h125.9c26.5 0 43.7 17.3 43.7 43.7v51.5H1455zm-329.2-135.8h-78c-54.3 0-93.6 39.6-93.6 92s39.3 92 93.6 92h78c54.3 0 93.6-39.3 93.6-92s-39.3-92-93.6-92m0 146.3h-78c-33.4 0-53.6-21.2-53.6-54.3s20.2-54.3 53.6-54.3h78c33.4 0 53.6 21.2 53.6 54.3s-20.2 54.3-53.6 54.3M834.3 201.3H685.7v184.1h148.6c54.3 0 93.6-39.3 93.6-92s-39.3-92-93.6-92Zm0 146.3H724.8V239h109.5c33.4 0 53.6 21.2 53.6 54.3s-20.2 54.3-53.6 54.3m-423.9-13.8c0-26.5 17.3-43.7 43.7-43.7h155.1v-41.9c0-5.8-3.5-9.2-9.2-9.2H458.3c-5.8 0-9.2 3.5-9.2 9.2v19.1h-38.7V245c0-26.5 17.3-43.7 43.7-43.7h150.5c26.5 0 43.7 17.3 43.7 43.7v140.4h-39.1v-57.5H458.7c-5.8 0-9.2 3.5-9.2 9.2v48.3h-39.1v-51.5m-264.5-.1c0-26.5 17.3-43.7 43.7-43.7h126.3c17.5 0 27.8-9.7 27.8-25.5s-10.4-25.5-27.8-25.5H144.7v-37.7h172.6c41 0 66.5 24.8 66.5 63.5s-25.5 63-66.5 63H194.2c-5.8 0-9.2 3.5-9.2 9.2v48.3h-39.1v-51.5" class="cls-1"/></svg>